<svg id="svg" version="1.1" xmlns="http://www.w3.org/2000/svg" xmlns:xlink="http://www.w3.org/1999/xlink" width="400" height="122.58992805755396" viewBox="0, 0, 400,122.58992805755396"><g id="svgg"><path id="path0" d="M344.000 39.664 L 344.000 42.833 348.004 42.833 L 352.007 42.833 351.962 39.708 L 351.917 36.583 347.958 36.539 L 344.000 36.494 344.000 39.664 M107.333 40.333 L 107.333 43.500 114.833 43.500 L 122.333 43.500 122.333 60.167 L 122.333 76.833 126.333 76.833 L 130.333 76.833 130.333 60.167 L 130.333 43.500 137.833 43.500 L 145.333 43.500 145.333 40.333 L 145.333 37.167 126.333 37.167 L 107.333 37.167 107.333 40.333 M306.000 57.000 L 306.000 76.833 310.250 76.833 L 314.500 76.833 314.500 68.500 L 314.500 60.167 326.000 60.167 L 337.500 60.167 337.500 56.667 L 337.500 53.167 326.000 53.167 L 314.500 53.167 314.500 48.333 L 314.500 43.500 326.583 43.500 L 338.667 43.500 338.667 40.333 L 338.667 37.167 322.333 37.167 L 306.000 37.167 306.000 57.000 M249.500 42.917 L 249.500 47.500 246.333 47.500 L 243.167 47.500 243.167 50.333 L 243.167 53.167 246.333 53.167 L 249.500 53.167 249.500 63.250 C 249.500 73.222,249.504 73.333,249.833 73.333 C 250.103 73.333,250.167 73.444,250.167 73.917 C 250.167 74.324,250.242 74.500,250.417 74.500 C 250.591 74.500,250.667 74.676,250.667 75.083 C 250.667 75.639,250.694 75.667,251.250 75.667 C 251.657 75.667,251.833 75.742,251.833 75.917 C 251.833 76.054,251.937 76.167,252.064 76.167 C 252.191 76.167,252.334 76.317,252.382 76.500 C 252.454 76.778,252.609 76.833,253.318 76.833 C 253.961 76.833,254.167 76.894,254.167 77.083 C 254.167 77.301,254.917 77.333,259.917 77.333 L 265.667 77.333 265.667 74.500 L 265.667 71.667 262.167 71.667 C 258.778 71.667,258.667 71.656,258.667 71.333 C 258.667 71.063,258.556 71.000,258.083 71.000 L 257.500 71.000 257.500 70.167 C 257.500 69.537,257.439 69.333,257.250 69.333 C 257.031 69.333,257.000 68.324,257.000 61.250 L 257.000 53.167 261.000 53.167 L 265.000 53.167 265.000 50.333 L 265.000 47.500 261.000 47.500 L 257.000 47.500 257.000 42.917 L 257.000 38.333 253.250 38.333 L 249.500 38.333 249.500 42.917 M361.167 42.917 L 361.167 47.500 358.000 47.500 L 354.833 47.500 354.833 50.333 L 354.833 53.167 358.000 53.167 L 361.167 53.167 361.167 63.000 C 361.167 72.722,361.170 72.833,361.500 72.833 C 361.789 72.833,361.833 72.944,361.833 73.667 C 361.833 74.296,361.894 74.500,362.083 74.500 C 362.221 74.500,362.333 74.612,362.333 74.750 C 362.333 74.887,362.446 75.000,362.583 75.000 C 362.722 75.000,362.833 75.148,362.833 75.333 C 362.833 75.556,362.944 75.667,363.167 75.667 C 363.352 75.667,363.500 75.778,363.500 75.917 C 363.500 76.054,363.604 76.167,363.731 76.167 C 363.857 76.167,364.000 76.317,364.048 76.500 C 364.121 76.778,364.276 76.833,364.984 76.833 C 365.628 76.833,365.833 76.894,365.833 77.083 C 365.833 77.301,366.583 77.333,371.583 77.333 L 377.333 77.333 377.333 74.500 L 377.333 71.667 373.833 71.667 C 370.444 71.667,370.333 71.656,370.333 71.333 C 370.333 71.148,370.222 71.000,370.083 71.000 C 369.946 71.000,369.833 70.887,369.833 70.750 C 369.833 70.611,369.685 70.500,369.500 70.500 C 369.171 70.500,369.167 70.389,369.167 61.833 L 369.167 53.167 372.917 53.167 L 376.667 53.167 376.667 50.333 L 376.667 47.500 372.917 47.500 L 369.167 47.500 369.167 42.917 L 369.167 38.333 365.167 38.333 L 361.167 38.333 361.167 42.917 M220.833 46.583 C 220.833 46.787,220.556 46.833,219.333 46.833 C 217.944 46.833,217.833 46.858,217.833 47.167 C 217.833 47.456,217.722 47.500,217.000 47.500 C 216.370 47.500,216.167 47.561,216.167 47.750 C 216.167 47.939,215.963 48.000,215.333 48.000 C 214.611 48.000,214.500 48.044,214.500 48.333 C 214.500 48.556,214.389 48.667,214.167 48.667 C 213.981 48.667,213.833 48.778,213.833 48.917 C 213.833 49.091,213.657 49.167,213.250 49.167 C 212.778 49.167,212.667 49.230,212.667 49.500 C 212.667 49.685,212.556 49.833,212.417 49.833 C 212.279 49.833,212.167 49.946,212.167 50.083 C 212.167 50.222,212.019 50.333,211.833 50.333 C 211.611 50.333,211.500 50.444,211.500 50.667 C 211.500 50.852,211.389 51.000,211.250 51.000 C 211.075 51.000,211.000 51.176,211.000 51.583 C 211.000 52.056,210.937 52.167,210.667 52.167 C 210.407 52.167,210.333 52.278,210.333 52.667 C 210.333 53.000,210.250 53.167,210.083 53.167 C 209.872 53.167,209.833 53.565,209.833 55.750 C 209.833 57.935,209.872 58.333,210.083 58.333 C 210.273 58.333,210.333 58.539,210.333 59.182 C 210.333 59.891,210.388 60.046,210.667 60.118 C 210.850 60.166,211.000 60.309,211.000 60.436 C 211.000 60.563,211.112 60.667,211.250 60.667 C 211.389 60.667,211.500 60.815,211.500 61.000 C 211.500 61.222,211.611 61.333,211.833 61.333 C 212.019 61.333,212.167 61.444,212.167 61.583 C 212.167 61.721,212.279 61.833,212.417 61.833 C 212.554 61.833,212.667 61.946,212.667 62.083 C 212.667 62.258,212.843 62.333,213.250 62.333 C 213.722 62.333,213.833 62.397,213.833 62.667 C 213.833 62.937,213.944 63.000,214.417 63.000 C 214.824 63.000,215.000 63.075,215.000 63.250 C 215.000 63.439,215.204 63.500,215.833 63.500 C 216.556 63.500,216.667 63.544,216.667 63.833 C 216.667 64.146,216.778 64.167,218.417 64.167 C 219.861 64.167,220.167 64.210,220.167 64.417 C 220.167 64.623,220.472 64.667,221.917 64.667 C 223.556 64.667,223.667 64.688,223.667 65.000 C 223.667 65.315,223.778 65.333,225.667 65.333 C 227.333 65.333,227.667 65.375,227.667 65.583 C 227.667 65.782,227.907 65.833,228.833 65.833 C 229.889 65.833,230.000 65.865,230.000 66.167 C 230.000 66.456,230.111 66.500,230.833 66.500 C 231.463 66.500,231.667 66.561,231.667 66.750 C 231.667 66.889,231.815 67.000,232.000 67.000 C 232.185 67.000,232.333 67.111,232.333 67.250 C 232.333 67.387,232.446 67.500,232.583 67.500 C 232.758 67.500,232.833 67.676,232.833 68.083 C 232.833 68.556,232.897 68.667,233.167 68.667 C 233.389 68.667,233.500 68.778,233.500 69.000 C 233.500 69.222,233.389 69.333,233.167 69.333 C 232.897 69.333,232.833 69.444,232.833 69.917 C 232.833 70.324,232.758 70.500,232.583 70.500 C 232.446 70.500,232.333 70.612,232.333 70.750 C 232.333 70.889,232.185 71.000,232.000 71.000 C 231.778 71.000,231.667 71.111,231.667 71.333 C 231.667 71.603,231.556 71.667,231.083 71.667 C 230.676 71.667,230.500 71.742,230.500 71.917 C 230.500 72.115,230.259 72.167,229.333 72.167 C 228.278 72.167,228.167 72.198,228.167 72.500 C 228.167 72.820,228.056 72.833,225.333 72.833 C 222.611 72.833,222.500 72.820,222.500 72.500 C 222.500 72.198,222.389 72.167,221.333 72.167 C 220.407 72.167,220.167 72.115,220.167 71.917 C 220.167 71.778,220.019 71.667,219.833 71.667 C 219.611 71.667,219.500 71.556,219.500 71.333 C 219.500 71.074,219.389 71.000,219.000 71.000 C 218.667 71.000,218.500 70.917,218.500 70.750 C 218.500 70.611,218.352 70.500,218.167 70.500 C 217.897 70.500,217.833 70.389,217.833 69.917 C 217.833 69.509,217.758 69.333,217.583 69.333 C 217.394 69.333,217.333 69.130,217.333 68.500 L 217.333 67.667 213.000 67.667 L 208.667 67.667 208.667 68.500 C 208.667 69.130,208.728 69.333,208.917 69.333 C 209.114 69.333,209.167 69.567,209.167 70.432 C 209.167 71.391,209.209 71.542,209.500 71.618 C 209.683 71.666,209.833 71.809,209.833 71.936 C 209.833 72.063,209.946 72.167,210.083 72.167 C 210.258 72.167,210.333 72.343,210.333 72.750 C 210.333 73.222,210.397 73.333,210.667 73.333 C 210.852 73.333,211.000 73.444,211.000 73.583 C 211.000 73.721,211.112 73.833,211.250 73.833 C 211.389 73.833,211.500 73.981,211.500 74.167 C 211.500 74.389,211.611 74.500,211.833 74.500 C 212.019 74.500,212.167 74.611,212.167 74.750 C 212.167 74.925,212.343 75.000,212.750 75.000 C 213.222 75.000,213.333 75.063,213.333 75.333 C 213.333 75.519,213.444 75.667,213.583 75.667 C 213.721 75.667,213.833 75.779,213.833 75.917 C 213.833 76.091,214.009 76.167,214.417 76.167 C 214.889 76.167,215.000 76.230,215.000 76.500 C 215.000 76.789,215.111 76.833,215.833 76.833 C 216.463 76.833,216.667 76.894,216.667 77.083 C 216.667 77.287,216.944 77.333,218.167 77.333 C 219.556 77.333,219.667 77.358,219.667 77.667 C 219.667 77.993,219.778 78.000,225.333 78.000 C 230.889 78.000,231.000 77.993,231.000 77.667 C 231.000 77.358,231.111 77.333,232.500 77.333 C 233.722 77.333,234.000 77.287,234.000 77.083 C 234.000 76.894,234.204 76.833,234.833 76.833 C 235.556 76.833,235.667 76.789,235.667 76.500 C 235.667 76.230,235.778 76.167,236.250 76.167 C 236.657 76.167,236.833 76.091,236.833 75.917 C 236.833 75.742,237.009 75.667,237.417 75.667 C 237.889 75.667,238.000 75.603,238.000 75.333 C 238.000 75.148,238.111 75.000,238.250 75.000 C 238.387 75.000,238.500 74.887,238.500 74.750 C 238.500 74.611,238.648 74.500,238.833 74.500 C 239.056 74.500,239.167 74.389,239.167 74.167 C 239.167 73.981,239.278 73.833,239.417 73.833 C 239.554 73.833,239.667 73.721,239.667 73.583 C 239.667 73.444,239.815 73.333,240.000 73.333 C 240.270 73.333,240.333 73.222,240.333 72.750 C 240.333 72.343,240.409 72.167,240.583 72.167 C 240.758 72.167,240.833 71.991,240.833 71.583 C 240.833 71.111,240.897 71.000,241.167 71.000 C 241.487 71.000,241.500 70.889,241.500 68.167 C 241.500 65.444,241.487 65.333,241.167 65.333 C 240.897 65.333,240.833 65.222,240.833 64.750 C 240.833 64.343,240.758 64.167,240.583 64.167 C 240.446 64.167,240.333 64.054,240.333 63.917 C 240.333 63.778,240.185 63.667,240.000 63.667 C 239.778 63.667,239.667 63.556,239.667 63.333 C 239.667 63.148,239.556 63.000,239.417 63.000 C 239.279 63.000,239.167 62.887,239.167 62.750 C 239.167 62.611,239.019 62.500,238.833 62.500 C 238.611 62.500,238.500 62.389,238.500 62.167 C 238.500 61.897,238.389 61.833,237.917 61.833 C 237.509 61.833,237.333 61.758,237.333 61.583 C 237.333 61.417,237.167 61.333,236.833 61.333 C 236.444 61.333,236.333 61.259,236.333 61.000 C 236.333 60.707,236.222 60.667,235.417 60.667 C 234.713 60.667,234.500 60.609,234.500 60.417 C 234.500 60.218,234.259 60.167,233.333 60.167 C 232.278 60.167,232.167 60.135,232.167 59.833 C 232.167 59.522,232.056 59.500,230.500 59.500 C 229.130 59.500,228.833 59.456,228.833 59.250 C 228.833 59.041,228.491 59.000,226.750 59.000 C 224.778 59.000,224.667 58.982,224.667 58.667 C 224.667 58.356,224.556 58.333,223.000 58.333 C 221.630 58.333,221.333 58.289,221.333 58.083 C 221.333 57.885,221.093 57.833,220.167 57.833 C 219.241 57.833,219.000 57.782,219.000 57.583 C 219.000 57.446,218.887 57.333,218.750 57.333 C 218.611 57.333,218.500 57.185,218.500 57.000 C 218.500 56.778,218.389 56.667,218.167 56.667 C 217.897 56.667,217.833 56.556,217.833 56.083 C 217.833 55.676,217.758 55.500,217.583 55.500 C 217.446 55.500,217.333 55.387,217.333 55.250 C 217.333 55.112,217.446 55.000,217.583 55.000 C 217.758 55.000,217.833 54.824,217.833 54.417 C 217.833 53.994,217.907 53.833,218.099 53.833 C 218.245 53.833,218.404 53.683,218.452 53.500 C 218.500 53.317,218.643 53.167,218.769 53.167 C 218.896 53.167,219.000 53.054,219.000 52.917 C 219.000 52.742,219.176 52.667,219.583 52.667 C 220.056 52.667,220.167 52.603,220.167 52.333 C 220.167 52.021,220.278 52.000,221.917 52.000 C 223.361 52.000,223.667 51.956,223.667 51.750 C 223.667 51.561,223.870 51.500,224.500 51.500 C 225.130 51.500,225.333 51.561,225.333 51.750 C 225.333 51.953,225.602 52.000,226.750 52.000 C 228.056 52.000,228.167 52.026,228.167 52.333 C 228.167 52.626,228.278 52.667,229.083 52.667 C 229.787 52.667,230.000 52.725,230.000 52.917 C 230.000 53.054,230.112 53.167,230.250 53.167 C 230.389 53.167,230.500 53.315,230.500 53.500 C 230.500 53.722,230.611 53.833,230.833 53.833 C 231.019 53.833,231.167 53.944,231.167 54.083 C 231.167 54.221,231.279 54.333,231.417 54.333 C 231.556 54.333,231.667 54.481,231.667 54.667 C 231.667 54.889,231.778 55.000,232.000 55.000 C 232.289 55.000,232.333 55.111,232.333 55.833 L 232.333 56.667 236.333 56.667 L 240.333 56.667 240.333 55.250 C 240.333 53.944,240.307 53.833,240.000 53.833 C 239.730 53.833,239.667 53.722,239.667 53.250 C 239.667 52.843,239.591 52.667,239.417 52.667 C 239.242 52.667,239.167 52.491,239.167 52.083 C 239.167 51.611,239.103 51.500,238.833 51.500 C 238.648 51.500,238.500 51.389,238.500 51.250 C 238.500 51.112,238.387 51.000,238.250 51.000 C 238.111 51.000,238.000 50.852,238.000 50.667 C 238.000 50.444,237.889 50.333,237.667 50.333 C 237.481 50.333,237.333 50.222,237.333 50.083 C 237.333 49.946,237.221 49.833,237.083 49.833 C 236.944 49.833,236.833 49.685,236.833 49.500 C 236.833 49.315,236.722 49.167,236.583 49.167 C 236.446 49.167,236.333 49.054,236.333 48.917 C 236.333 48.744,236.160 48.667,235.769 48.667 C 235.346 48.667,235.184 48.584,235.118 48.333 C 235.046 48.055,234.891 48.000,234.182 48.000 C 233.539 48.000,233.333 47.940,233.333 47.750 C 233.333 47.561,233.130 47.500,232.500 47.500 C 231.778 47.500,231.667 47.456,231.667 47.167 C 231.667 46.859,231.556 46.833,230.250 46.833 C 229.102 46.833,228.833 46.786,228.833 46.583 C 228.833 46.368,228.278 46.333,224.833 46.333 C 221.389 46.333,220.833 46.368,220.833 46.583 M160.333 47.167 C 160.333 47.456,160.222 47.500,159.500 47.500 C 158.870 47.500,158.667 47.561,158.667 47.750 C 158.667 47.925,158.491 48.000,158.083 48.000 C 157.611 48.000,157.500 48.063,157.500 48.333 C 157.500 48.556,157.389 48.667,157.167 48.667 C 156.981 48.667,156.833 48.778,156.833 48.917 C 156.833 49.091,156.657 49.167,156.250 49.167 C 155.778 49.167,155.667 49.230,155.667 49.500 C 155.667 49.685,155.556 49.833,155.417 49.833 C 155.279 49.833,155.167 49.946,155.167 50.083 C 155.167 50.222,155.019 50.333,154.833 50.333 C 154.611 50.333,154.500 50.444,154.500 50.667 C 154.500 50.852,154.389 51.000,154.250 51.000 C 154.075 51.000,154.000 51.176,154.000 51.583 C 154.000 51.991,153.925 52.167,153.750 52.167 C 153.612 52.167,153.500 52.279,153.500 52.417 C 153.500 52.556,153.352 52.667,153.167 52.667 C 152.848 52.667,152.833 52.556,152.833 50.083 L 152.833 47.500 148.833 47.500 L 144.833 47.500 144.833 62.167 L 144.833 76.833 148.833 76.833 L 152.833 76.833 152.833 68.500 C 152.833 61.204,152.864 60.167,153.083 60.167 C 153.258 60.167,153.333 59.991,153.333 59.583 C 153.333 59.111,153.397 59.000,153.667 59.000 C 153.937 59.000,154.000 58.889,154.000 58.417 C 154.000 58.009,154.075 57.833,154.250 57.833 C 154.425 57.833,154.500 57.657,154.500 57.250 C 154.500 56.778,154.563 56.667,154.833 56.667 C 155.056 56.667,155.167 56.556,155.167 56.333 C 155.167 56.063,155.278 56.000,155.750 56.000 C 156.157 56.000,156.333 55.925,156.333 55.750 C 156.333 55.612,156.446 55.500,156.583 55.500 C 156.721 55.500,156.833 55.387,156.833 55.250 C 156.833 55.075,157.009 55.000,157.417 55.000 C 157.889 55.000,158.000 54.937,158.000 54.667 C 158.000 54.365,158.111 54.333,159.167 54.333 C 160.093 54.333,160.333 54.282,160.333 54.083 C 160.333 53.875,160.667 53.833,162.333 53.833 C 164.000 53.833,164.333 53.875,164.333 54.083 C 164.333 54.286,164.602 54.333,165.750 54.333 L 167.167 54.333 167.167 50.583 L 167.167 46.833 163.750 46.833 C 160.444 46.833,160.333 46.844,160.333 47.167 M171.333 58.083 C 171.333 67.380,171.364 68.667,171.583 68.667 C 171.787 68.667,171.833 68.944,171.833 70.167 C 171.833 71.389,171.880 71.667,172.083 71.667 C 172.252 71.667,172.333 71.835,172.333 72.182 C 172.333 72.558,172.424 72.722,172.667 72.785 C 172.903 72.847,173.000 73.012,173.000 73.353 C 173.000 73.669,173.086 73.833,173.250 73.833 C 173.389 73.833,173.500 73.981,173.500 74.167 C 173.500 74.389,173.611 74.500,173.833 74.500 C 174.019 74.500,174.167 74.611,174.167 74.750 C 174.167 74.887,174.279 75.000,174.417 75.000 C 174.556 75.000,174.667 75.148,174.667 75.333 C 174.667 75.556,174.778 75.667,175.000 75.667 C 175.185 75.667,175.333 75.778,175.333 75.917 C 175.333 76.091,175.509 76.167,175.917 76.167 C 176.389 76.167,176.500 76.230,176.500 76.500 C 176.500 76.770,176.611 76.833,177.083 76.833 C 177.491 76.833,177.667 76.909,177.667 77.083 C 177.667 77.272,177.870 77.333,178.500 77.333 C 179.222 77.333,179.333 77.378,179.333 77.667 C 179.333 77.991,179.444 78.000,183.583 78.000 C 187.722 78.000,187.833 77.991,187.833 77.667 C 187.833 77.374,187.944 77.333,188.750 77.333 C 189.454 77.333,189.667 77.275,189.667 77.083 C 189.667 76.894,189.870 76.833,190.500 76.833 C 191.222 76.833,191.333 76.789,191.333 76.500 C 191.333 76.230,191.444 76.167,191.917 76.167 C 192.324 76.167,192.500 76.091,192.500 75.917 C 192.500 75.778,192.648 75.667,192.833 75.667 C 193.056 75.667,193.167 75.556,193.167 75.333 C 193.167 75.148,193.278 75.000,193.417 75.000 C 193.554 75.000,193.667 74.887,193.667 74.750 C 193.667 74.612,193.779 74.500,193.917 74.500 C 194.056 74.500,194.167 74.352,194.167 74.167 C 194.167 73.944,194.278 73.833,194.500 73.833 C 194.685 73.833,194.833 73.722,194.833 73.583 C 194.833 73.446,194.940 73.333,195.071 73.333 C 195.202 73.333,195.343 73.202,195.385 73.042 C 195.427 72.881,195.470 73.669,195.481 74.792 L 195.500 76.833 199.500 76.833 L 203.500 76.833 203.500 62.167 L 203.500 47.500 199.500 47.500 L 195.500 47.500 195.500 57.000 C 195.500 66.389,195.496 66.500,195.167 66.500 C 194.897 66.500,194.833 66.611,194.833 67.083 C 194.833 67.491,194.758 67.667,194.583 67.667 C 194.409 67.667,194.333 67.843,194.333 68.250 C 194.333 68.722,194.270 68.833,194.000 68.833 C 193.815 68.833,193.667 68.944,193.667 69.083 C 193.667 69.221,193.554 69.333,193.417 69.333 C 193.279 69.333,193.167 69.437,193.167 69.564 C 193.167 69.691,193.017 69.834,192.833 69.882 C 192.650 69.930,192.500 70.088,192.500 70.234 C 192.500 70.427,192.339 70.500,191.917 70.500 C 191.509 70.500,191.333 70.575,191.333 70.750 C 191.333 70.917,191.167 71.000,190.833 71.000 C 190.444 71.000,190.333 71.074,190.333 71.333 C 190.333 71.626,190.222 71.667,189.417 71.667 C 188.713 71.667,188.500 71.725,188.500 71.917 C 188.500 72.125,188.167 72.167,186.500 72.167 C 184.833 72.167,184.500 72.125,184.500 71.917 C 184.500 71.725,184.287 71.667,183.583 71.667 C 182.778 71.667,182.667 71.626,182.667 71.333 C 182.667 71.063,182.556 71.000,182.083 71.000 C 181.676 71.000,181.500 70.925,181.500 70.750 C 181.500 70.612,181.387 70.500,181.250 70.500 C 181.111 70.500,181.000 70.352,181.000 70.167 C 181.000 69.981,180.889 69.833,180.750 69.833 C 180.612 69.833,180.500 69.721,180.500 69.583 C 180.500 69.444,180.352 69.333,180.167 69.333 C 179.878 69.333,179.833 69.222,179.833 68.500 C 179.833 67.870,179.772 67.667,179.583 67.667 C 179.364 67.667,179.333 66.435,179.333 57.583 L 179.333 47.500 175.333 47.500 L 171.333 47.500 171.333 58.083 M266.833 48.083 C 266.833 48.491,266.909 48.667,267.083 48.667 C 267.250 48.667,267.333 48.833,267.333 49.167 C 267.333 49.556,267.407 49.667,267.667 49.667 C 267.937 49.667,268.000 49.778,268.000 50.250 C 268.000 50.657,268.075 50.833,268.250 50.833 C 268.425 50.833,268.500 51.009,268.500 51.417 C 268.500 51.889,268.563 52.000,268.833 52.000 C 269.103 52.000,269.167 52.111,269.167 52.583 C 269.167 52.991,269.242 53.167,269.417 53.167 C 269.591 53.167,269.667 53.343,269.667 53.750 C 269.667 54.222,269.730 54.333,270.000 54.333 C 270.270 54.333,270.333 54.444,270.333 54.917 C 270.333 55.324,270.409 55.500,270.583 55.500 C 270.772 55.500,270.833 55.704,270.833 56.333 C 270.833 56.963,270.894 57.167,271.083 57.167 C 271.258 57.167,271.333 57.343,271.333 57.750 C 271.333 58.222,271.397 58.333,271.667 58.333 C 271.937 58.333,272.000 58.444,272.000 58.917 C 272.000 59.324,272.075 59.500,272.250 59.500 C 272.425 59.500,272.500 59.676,272.500 60.083 C 272.500 60.556,272.563 60.667,272.833 60.667 C 273.103 60.667,273.167 60.778,273.167 61.250 C 273.167 61.657,273.242 61.833,273.417 61.833 C 273.591 61.833,273.667 62.009,273.667 62.417 C 273.667 62.889,273.730 63.000,274.000 63.000 C 274.270 63.000,274.333 63.111,274.333 63.583 C 274.333 63.991,274.409 64.167,274.583 64.167 C 274.758 64.167,274.833 64.343,274.833 64.750 C 274.833 65.222,274.897 65.333,275.167 65.333 C 275.437 65.333,275.500 65.444,275.500 65.917 C 275.500 66.324,275.575 66.500,275.750 66.500 C 275.917 66.500,276.000 66.667,276.000 67.000 C 276.000 67.333,276.083 67.500,276.250 67.500 C 276.442 67.500,276.500 67.713,276.500 68.417 C 276.500 69.222,276.540 69.333,276.833 69.333 C 277.103 69.333,277.167 69.444,277.167 69.917 C 277.167 70.324,277.242 70.500,277.417 70.500 C 277.585 70.500,277.667 70.668,277.667 71.016 C 277.667 71.391,277.757 71.555,278.000 71.618 C 278.250 71.684,278.333 71.846,278.333 72.269 C 278.333 72.660,278.410 72.833,278.583 72.833 C 278.750 72.833,278.833 73.000,278.833 73.333 C 278.833 73.722,278.907 73.833,279.167 73.833 C 279.437 73.833,279.500 73.944,279.500 74.417 C 279.500 74.824,279.575 75.000,279.750 75.000 C 279.948 75.000,280.000 75.241,280.000 76.167 C 280.000 77.093,279.948 77.333,279.750 77.333 C 279.558 77.333,279.500 77.546,279.500 78.250 C 279.500 79.056,279.460 79.167,279.167 79.167 C 278.897 79.167,278.833 79.278,278.833 79.750 C 278.833 80.157,278.758 80.333,278.583 80.333 C 278.446 80.333,278.333 80.446,278.333 80.583 C 278.333 80.722,278.185 80.833,278.000 80.833 C 277.815 80.833,277.667 80.944,277.667 81.083 C 277.667 81.252,277.498 81.333,277.151 81.333 C 276.776 81.333,276.612 81.424,276.548 81.667 C 276.465 81.985,276.321 82.000,273.397 82.000 L 270.333 82.000 270.333 85.167 L 270.333 88.333 274.000 88.333 C 277.556 88.333,277.667 88.323,277.667 88.000 C 277.667 87.688,277.778 87.667,279.417 87.667 C 280.861 87.667,281.167 87.623,281.167 87.417 C 281.167 87.242,281.343 87.167,281.750 87.167 C 282.222 87.167,282.333 87.103,282.333 86.833 C 282.333 86.648,282.444 86.500,282.583 86.500 C 282.721 86.500,282.833 86.388,282.833 86.250 C 282.833 86.111,282.981 86.000,283.167 86.000 C 283.389 86.000,283.500 85.889,283.500 85.667 C 283.500 85.481,283.611 85.333,283.750 85.333 C 283.887 85.333,284.000 85.221,284.000 85.083 C 284.000 84.944,284.148 84.833,284.333 84.833 C 284.519 84.833,284.667 84.722,284.667 84.583 C 284.667 84.446,284.779 84.333,284.917 84.333 C 285.109 84.333,285.167 84.120,285.167 83.417 C 285.167 82.611,285.207 82.500,285.500 82.500 C 285.770 82.500,285.833 82.389,285.833 81.917 C 285.833 81.509,285.909 81.333,286.083 81.333 C 286.258 81.333,286.333 81.157,286.333 80.750 C 286.333 80.343,286.409 80.167,286.583 80.167 C 286.758 80.167,286.833 79.991,286.833 79.583 C 286.833 79.111,286.897 79.000,287.167 79.000 C 287.426 79.000,287.500 78.889,287.500 78.500 C 287.500 78.167,287.583 78.000,287.750 78.000 C 287.925 78.000,288.000 77.824,288.000 77.417 C 288.000 76.944,288.063 76.833,288.333 76.833 C 288.626 76.833,288.667 76.722,288.667 75.917 C 288.667 75.213,288.725 75.000,288.917 75.000 C 289.091 75.000,289.167 74.824,289.167 74.417 C 289.167 73.944,289.230 73.833,289.500 73.833 C 289.759 73.833,289.833 73.722,289.833 73.333 C 289.833 73.000,289.917 72.833,290.083 72.833 C 290.256 72.833,290.333 72.660,290.333 72.269 C 290.333 71.846,290.416 71.684,290.667 71.618 C 290.909 71.555,291.000 71.391,291.000 71.016 C 291.000 70.668,291.082 70.500,291.250 70.500 C 291.425 70.500,291.500 70.324,291.500 69.917 C 291.500 69.444,291.563 69.333,291.833 69.333 C 292.103 69.333,292.167 69.222,292.167 68.750 C 292.167 68.343,292.242 68.167,292.417 68.167 C 292.606 68.167,292.667 67.963,292.667 67.333 C 292.667 66.704,292.728 66.500,292.917 66.500 C 293.091 66.500,293.167 66.324,293.167 65.917 C 293.167 65.444,293.230 65.333,293.500 65.333 C 293.770 65.333,293.833 65.222,293.833 64.750 C 293.833 64.343,293.909 64.167,294.083 64.167 C 294.258 64.167,294.333 63.991,294.333 63.583 C 294.333 63.111,294.397 63.000,294.667 63.000 C 294.937 63.000,295.000 62.889,295.000 62.417 C 295.000 62.009,295.075 61.833,295.250 61.833 C 295.425 61.833,295.500 61.657,295.500 61.250 C 295.500 60.778,295.563 60.667,295.833 60.667 C 296.122 60.667,296.167 60.556,296.167 59.833 C 296.167 59.204,296.228 59.000,296.417 59.000 C 296.591 59.000,296.667 58.824,296.667 58.417 C 296.667 57.944,296.730 57.833,297.000 57.833 C 297.270 57.833,297.333 57.722,297.333 57.250 C 297.333 56.843,297.409 56.667,297.583 56.667 C 297.758 56.667,297.833 56.491,297.833 56.083 C 297.833 55.611,297.897 55.500,298.167 55.500 C 298.437 55.500,298.500 55.389,298.500 54.917 C 298.500 54.509,298.575 54.333,298.750 54.333 C 298.925 54.333,299.000 54.157,299.000 53.750 C 299.000 53.343,299.075 53.167,299.250 53.167 C 299.425 53.167,299.500 52.991,299.500 52.583 C 299.500 52.111,299.563 52.000,299.833 52.000 C 300.122 52.000,300.167 51.889,300.167 51.167 C 300.167 50.537,300.228 50.333,300.417 50.333 C 300.591 50.333,300.667 50.157,300.667 49.750 C 300.667 49.278,300.730 49.167,301.000 49.167 C 301.289 49.167,301.333 49.056,301.333 48.333 L 301.333 47.500 297.333 47.500 L 293.333 47.500 293.333 48.333 C 293.333 49.056,293.289 49.167,293.000 49.167 C 292.730 49.167,292.667 49.278,292.667 49.750 C 292.667 50.157,292.591 50.333,292.417 50.333 C 292.242 50.333,292.167 50.509,292.167 50.917 C 292.167 51.389,292.103 51.500,291.833 51.500 C 291.544 51.500,291.500 51.611,291.500 52.333 C 291.500 52.963,291.439 53.167,291.250 53.167 C 291.077 53.167,291.000 53.340,291.000 53.731 C 291.000 54.154,290.917 54.316,290.667 54.382 C 290.424 54.445,290.333 54.609,290.333 54.984 C 290.333 55.332,290.252 55.500,290.083 55.500 C 289.909 55.500,289.833 55.676,289.833 56.083 C 289.833 56.556,289.770 56.667,289.500 56.667 C 289.211 56.667,289.167 56.778,289.167 57.500 C 289.167 58.130,289.106 58.333,288.917 58.333 C 288.742 58.333,288.667 58.509,288.667 58.917 C 288.667 59.324,288.591 59.500,288.417 59.500 C 288.242 59.500,288.167 59.676,288.167 60.083 C 288.167 60.556,288.103 60.667,287.833 60.667 C 287.540 60.667,287.500 60.778,287.500 61.583 C 287.500 62.287,287.442 62.500,287.250 62.500 C 287.075 62.500,287.000 62.676,287.000 63.083 C 287.000 63.556,286.937 63.667,286.667 63.667 C 286.407 63.667,286.333 63.778,286.333 64.167 C 286.333 64.500,286.250 64.667,286.083 64.667 C 285.910 64.667,285.833 64.840,285.833 65.231 C 285.833 65.654,285.750 65.816,285.500 65.882 C 285.222 65.954,285.167 66.109,285.167 66.818 C 285.167 67.461,285.106 67.667,284.917 67.667 C 284.779 67.667,284.667 67.779,284.667 67.917 C 284.667 68.056,284.519 68.167,284.333 68.167 C 284.063 68.167,284.000 68.056,284.000 67.583 C 284.000 67.176,283.925 67.000,283.750 67.000 C 283.575 67.000,283.500 66.824,283.500 66.417 C 283.500 65.944,283.437 65.833,283.167 65.833 C 282.897 65.833,282.833 65.722,282.833 65.250 C 282.833 64.843,282.758 64.667,282.583 64.667 C 282.394 64.667,282.333 64.463,282.333 63.833 C 282.333 63.111,282.289 63.000,282.000 63.000 C 281.730 63.000,281.667 62.889,281.667 62.417 C 281.667 62.009,281.591 61.833,281.417 61.833 C 281.242 61.833,281.167 61.657,281.167 61.250 C 281.167 60.778,281.103 60.667,280.833 60.667 C 280.563 60.667,280.500 60.556,280.500 60.083 C 280.500 59.676,280.425 59.500,280.250 59.500 C 280.061 59.500,280.000 59.296,280.000 58.667 C 280.000 58.037,279.939 57.833,279.750 57.833 C 279.575 57.833,279.500 57.657,279.500 57.250 C 279.500 56.778,279.437 56.667,279.167 56.667 C 278.897 56.667,278.833 56.556,278.833 56.083 C 278.833 55.676,278.758 55.500,278.583 55.500 C 278.415 55.500,278.333 55.332,278.333 54.984 C 278.333 54.609,278.243 54.445,278.000 54.382 C 277.750 54.316,277.667 54.154,277.667 53.731 C 277.667 53.340,277.590 53.167,277.417 53.167 C 277.228 53.167,277.167 52.963,277.167 52.333 C 277.167 51.611,277.122 51.500,276.833 51.500 C 276.563 51.500,276.500 51.389,276.500 50.917 C 276.500 50.509,276.425 50.333,276.250 50.333 C 276.075 50.333,276.000 50.157,276.000 49.750 C 276.000 49.278,275.937 49.167,275.667 49.167 C 275.397 49.167,275.333 49.056,275.333 48.583 C 275.333 48.176,275.258 48.000,275.083 48.000 C 274.946 48.000,274.833 47.887,274.833 47.750 C 274.833 47.535,274.278 47.500,270.833 47.500 L 266.833 47.500 266.833 48.083 M344.000 62.170 L 344.000 76.839 347.958 76.795 L 351.917 76.750 351.959 62.125 L 352.002 47.500 348.001 47.500 L 344.000 47.500 344.000 62.170 " stroke="none" fill="#fcfcfc" fill-rule="evenodd"></path><path id="path1" d="M49.167 23.083 C 49.167 23.263,48.984 23.333,48.519 23.333 C 48.004 23.333,47.875 23.393,47.894 23.625 C 47.925 24.017,46.463 24.328,45.987 24.031 C 45.409 23.669,44.555 23.776,44.570 24.208 C 44.583 24.571,44.541 24.581,43.292 24.524 C 42.092 24.469,42.000 24.489,42.000 24.798 C 42.000 25.200,41.310 25.422,40.841 25.171 C 40.245 24.852,39.019 24.952,39.113 25.312 C 39.225 25.742,38.590 25.879,37.147 25.737 C 36.071 25.631,36.000 25.644,36.000 25.959 C 36.000 26.332,35.498 26.540,35.143 26.315 C 34.676 26.019,33.500 26.139,33.500 26.482 C 33.500 26.932,33.177 27.003,31.662 26.886 C 30.483 26.795,30.337 26.815,30.426 27.048 C 30.570 27.422,29.282 27.773,28.714 27.514 C 28.068 27.220,27.500 27.285,27.500 27.653 C 27.500 28.085,27.274 28.141,25.958 28.039 C 24.995 27.964,24.833 27.991,24.833 28.223 C 24.833 28.678,23.979 28.796,22.290 28.572 C 21.607 28.481,21.512 28.503,21.600 28.733 C 21.682 28.947,21.584 29.000,21.101 29.000 C 20.611 29.000,20.500 29.062,20.500 29.333 C 20.500 29.603,20.389 29.667,19.917 29.667 C 19.531 29.667,19.333 29.745,19.333 29.897 C 19.333 30.024,19.183 30.167,19.000 30.215 C 18.665 30.303,18.522 30.833,18.833 30.833 C 19.089 30.833,19.031 31.771,18.733 32.464 C 18.494 33.017,18.451 33.048,18.328 32.750 C 18.252 32.567,18.190 41.267,18.190 52.083 C 18.190 62.900,18.244 71.613,18.310 71.446 C 18.662 70.552,18.980 72.267,18.743 73.780 C 18.641 74.429,18.658 74.471,18.984 74.386 C 19.302 74.303,19.333 74.364,19.333 75.064 C 19.333 75.708,19.385 75.833,19.649 75.833 C 20.031 75.833,20.167 76.133,19.989 76.583 C 19.749 77.189,19.807 77.476,20.152 77.385 C 20.582 77.273,20.914 77.871,20.673 78.322 C 20.431 78.773,20.457 79.000,20.750 79.000 C 20.887 79.000,21.000 79.145,21.000 79.322 C 21.000 79.529,21.134 79.663,21.375 79.697 C 21.708 79.744,21.747 79.838,21.723 80.542 C 21.703 81.125,21.758 81.333,21.931 81.333 C 22.061 81.333,22.167 81.408,22.167 81.500 C 22.167 81.592,22.313 81.667,22.492 81.667 C 22.799 81.667,23.389 82.570,23.321 82.935 C 23.236 83.393,23.365 83.667,23.667 83.667 C 23.850 83.667,24.000 83.733,24.000 83.814 C 24.000 83.895,24.160 84.003,24.356 84.054 C 24.652 84.132,24.695 84.232,24.612 84.651 C 24.551 84.951,24.587 85.201,24.700 85.271 C 24.825 85.348,24.854 85.293,24.784 85.111 C 24.725 84.958,24.750 84.833,24.839 84.833 C 24.927 84.833,25.000 85.096,25.000 85.417 C 25.000 85.889,25.063 86.000,25.333 86.000 C 25.519 86.000,25.667 86.111,25.667 86.250 C 25.667 86.388,25.779 86.500,25.917 86.500 C 26.054 86.500,26.167 86.634,26.167 86.799 C 26.167 87.012,26.381 87.155,26.917 87.298 C 27.552 87.468,27.667 87.562,27.667 87.916 C 27.667 88.146,27.742 88.333,27.833 88.333 C 27.925 88.333,28.000 88.446,28.000 88.583 C 28.000 88.721,28.113 88.833,28.250 88.833 C 28.389 88.833,28.500 88.981,28.500 89.167 C 28.500 89.389,28.611 89.500,28.833 89.500 C 29.019 89.500,29.167 89.611,29.167 89.750 C 29.167 89.888,29.279 90.000,29.417 90.000 C 29.554 90.000,29.667 90.112,29.667 90.250 C 29.667 90.431,29.852 90.500,30.333 90.500 C 30.700 90.500,31.000 90.565,31.000 90.644 C 31.000 90.723,31.300 90.996,31.667 91.250 C 32.033 91.504,32.333 91.847,32.333 92.013 C 32.333 92.178,32.410 92.361,32.503 92.418 C 32.596 92.476,32.623 92.603,32.562 92.701 C 32.487 92.822,32.642 92.844,33.046 92.768 C 33.414 92.699,33.684 92.726,33.753 92.838 C 33.815 92.939,34.046 93.089,34.266 93.173 C 34.507 93.264,34.667 93.460,34.667 93.663 C 34.667 93.911,34.776 94.000,35.083 94.000 C 35.313 94.000,35.500 94.070,35.500 94.155 C 35.500 94.240,35.669 94.334,35.875 94.363 C 36.118 94.398,36.269 94.551,36.304 94.796 C 36.347 95.097,36.449 95.166,36.804 95.129 C 37.157 95.093,37.261 95.162,37.303 95.458 C 37.333 95.665,37.426 95.833,37.512 95.833 C 37.597 95.833,37.667 95.955,37.667 96.105 C 37.667 96.329,37.785 96.357,38.348 96.267 C 38.941 96.172,39.040 96.202,39.117 96.496 C 39.180 96.736,39.344 96.833,39.686 96.833 C 40.044 96.833,40.167 96.913,40.167 97.144 C 40.167 97.386,40.333 97.478,40.923 97.558 C 41.902 97.692,42.333 97.932,42.333 98.339 C 42.333 98.519,42.446 98.667,42.583 98.667 C 42.721 98.667,42.833 98.777,42.833 98.911 C 42.833 99.100,43.034 99.148,43.708 99.120 C 44.529 99.086,44.582 99.108,44.568 99.473 C 44.555 99.840,44.596 99.857,45.277 99.755 C 45.938 99.656,46.000 99.677,46.000 100.002 C 46.000 100.304,46.083 100.350,46.542 100.304 C 46.996 100.259,47.092 100.310,47.137 100.625 C 47.197 101.053,47.233 101.066,47.684 100.824 C 48.126 100.587,48.667 100.781,48.667 101.177 C 48.667 101.454,48.774 101.492,49.458 101.457 C 50.184 101.420,50.249 101.448,50.237 101.792 C 50.225 102.116,50.308 102.167,50.846 102.167 C 51.386 102.167,51.457 102.122,51.382 101.835 C 51.273 101.419,51.902 101.141,52.469 101.355 C 52.989 101.551,53.000 101.547,53.000 101.175 C 53.000 100.880,53.094 100.857,54.000 100.923 C 54.664 100.972,55.000 100.935,55.000 100.812 C 55.000 100.710,54.852 100.667,54.667 100.715 C 54.450 100.772,54.333 100.720,54.333 100.568 C 54.333 100.411,54.527 100.333,54.917 100.333 C 55.364 100.333,55.500 100.265,55.500 100.037 C 55.500 99.794,55.615 99.752,56.140 99.802 C 56.720 99.858,56.778 99.827,56.765 99.473 C 56.751 99.108,56.805 99.086,57.625 99.120 C 58.300 99.148,58.500 99.100,58.500 98.911 C 58.500 98.777,58.575 98.667,58.667 98.667 C 58.758 98.667,58.833 98.517,58.833 98.333 C 58.833 98.063,58.944 98.000,59.417 98.000 C 59.896 98.000,60.000 97.938,60.000 97.653 C 60.000 97.357,60.071 97.322,60.487 97.414 C 60.907 97.506,60.982 97.468,61.029 97.135 C 61.069 96.850,61.191 96.750,61.500 96.750 C 61.748 96.750,61.986 96.615,62.088 96.418 C 62.181 96.236,62.406 96.058,62.588 96.024 C 62.769 95.990,62.965 95.886,63.023 95.793 C 63.168 95.562,63.496 95.789,63.517 96.135 C 63.527 96.290,63.629 96.117,63.745 95.750 C 63.949 95.101,63.973 95.085,64.644 95.128 C 65.169 95.162,65.333 95.112,65.333 94.920 C 65.333 94.781,65.408 94.667,65.500 94.667 C 65.592 94.667,65.667 94.519,65.667 94.338 C 65.667 93.979,66.425 93.500,66.992 93.500 C 67.242 93.500,67.333 93.392,67.333 93.095 C 67.333 92.836,67.454 92.651,67.667 92.583 C 67.850 92.525,68.000 92.401,68.000 92.307 C 68.000 92.201,68.251 92.180,68.667 92.250 C 69.268 92.352,69.333 92.328,69.333 92.015 C 69.333 91.778,69.440 91.667,69.667 91.667 C 69.852 91.667,70.000 91.556,70.000 91.417 C 70.000 91.279,70.075 91.167,70.167 91.167 C 70.258 91.167,70.334 90.998,70.335 90.792 C 70.336 90.364,70.963 90.000,71.700 90.000 C 72.004 90.000,72.167 89.913,72.167 89.750 C 72.167 89.611,72.315 89.500,72.500 89.500 C 72.722 89.500,72.833 89.389,72.833 89.167 C 72.833 88.981,72.944 88.833,73.083 88.833 C 73.221 88.833,73.333 88.721,73.333 88.583 C 73.333 88.444,73.481 88.333,73.667 88.333 C 73.889 88.333,74.000 88.222,74.000 88.000 C 74.000 87.815,74.111 87.667,74.250 87.667 C 74.387 87.667,74.500 87.554,74.500 87.417 C 74.500 87.278,74.648 87.167,74.833 87.167 C 75.056 87.167,75.167 87.056,75.167 86.833 C 75.167 86.648,75.278 86.500,75.417 86.500 C 75.554 86.500,75.667 86.388,75.667 86.250 C 75.667 86.108,75.816 86.000,76.015 86.000 C 76.328 86.000,76.352 85.934,76.250 85.333 C 76.183 84.936,76.203 84.667,76.299 84.667 C 76.388 84.667,76.500 84.517,76.548 84.333 C 76.600 84.134,76.776 84.000,76.984 84.000 C 77.176 84.000,77.333 83.925,77.333 83.833 C 77.333 83.742,77.493 83.667,77.688 83.667 C 77.994 83.667,78.028 83.598,77.940 83.157 C 77.820 82.558,78.373 81.667,78.865 81.667 C 79.071 81.667,79.167 81.542,79.167 81.275 C 79.167 80.475,79.508 79.833,79.934 79.833 C 80.289 79.833,80.313 79.796,80.136 79.514 C 79.911 79.152,80.182 78.667,80.610 78.667 C 80.793 78.667,80.806 78.594,80.667 78.333 C 80.413 77.860,80.745 77.271,81.198 77.390 C 81.509 77.471,81.526 77.423,81.424 76.739 C 81.323 76.068,81.345 76.000,81.656 76.000 C 82.018 76.000,82.094 75.741,81.848 75.351 C 81.598 74.956,81.984 74.123,82.370 74.224 C 82.675 74.304,82.689 74.251,82.578 73.447 C 82.382 72.024,82.306 31.628,82.499 31.435 C 82.777 31.156,82.688 30.833,82.333 30.833 C 82.063 30.833,82.000 30.722,82.000 30.250 C 82.000 29.843,81.925 29.667,81.750 29.667 C 81.612 29.667,81.500 29.552,81.500 29.411 C 81.500 29.076,81.104 28.934,80.721 29.131 C 80.311 29.343,80.000 29.208,80.000 28.819 C 80.000 28.453,79.360 28.376,78.869 28.683 C 78.464 28.936,77.167 28.588,77.167 28.226 C 77.167 28.011,76.969 27.973,76.042 28.007 C 74.543 28.061,74.500 28.052,74.500 27.667 C 74.500 27.295,73.737 27.195,73.179 27.493 C 72.706 27.747,71.637 27.506,71.537 27.123 C 71.463 26.839,71.361 26.812,70.767 26.914 C 69.294 27.169,68.263 26.985,68.418 26.494 C 68.538 26.117,67.437 26.010,66.822 26.339 C 66.427 26.551,65.833 26.282,65.833 25.891 C 65.833 25.666,65.676 25.645,64.750 25.744 C 63.307 25.898,62.607 25.746,62.723 25.301 C 62.804 24.992,62.750 24.976,61.947 25.071 C 60.226 25.275,59.626 25.137,59.950 24.613 C 60.005 24.524,59.467 24.486,58.647 24.522 C 57.288 24.582,57.250 24.573,57.263 24.208 C 57.278 23.794,56.305 23.641,56.070 24.021 C 55.995 24.143,55.633 24.175,55.034 24.114 C 54.152 24.023,53.748 23.773,53.951 23.445 C 54.008 23.353,53.621 23.321,53.000 23.366 C 52.090 23.431,51.943 23.402,51.874 23.137 C 51.767 22.728,49.833 22.677,49.833 23.083 C 49.833 23.221,49.713 23.333,49.566 23.333 C 49.396 23.333,49.333 23.242,49.394 23.083 C 49.446 22.946,49.417 22.833,49.328 22.833 C 49.239 22.833,49.167 22.946,49.167 23.083 M51.500 31.571 C 51.500 31.702,51.369 31.843,51.208 31.885 C 51.048 31.927,51.306 31.970,51.782 31.981 C 52.258 31.991,52.693 31.925,52.750 31.833 C 53.009 31.414,54.333 31.708,54.333 32.184 C 54.333 32.541,55.267 32.636,55.828 32.336 C 56.214 32.129,57.167 32.435,57.167 32.766 C 57.167 33.044,57.927 33.086,58.093 32.818 C 58.198 32.648,58.540 32.671,59.875 32.936 C 60.184 32.997,60.333 33.131,60.333 33.347 C 60.333 33.721,60.904 33.779,61.575 33.473 C 62.094 33.237,62.833 33.510,62.833 33.937 C 62.833 34.179,62.983 34.203,63.983 34.119 C 65.374 34.002,65.833 34.101,65.833 34.519 C 65.833 34.867,67.048 34.993,67.250 34.667 C 67.501 34.261,68.833 34.617,68.833 35.089 C 68.833 35.366,69.918 35.433,70.316 35.181 C 70.700 34.938,71.543 35.316,71.446 35.688 C 71.355 36.036,72.709 36.170,72.917 35.833 C 73.094 35.546,73.931 35.651,74.349 36.014 L 74.750 36.361 74.795 53.320 C 74.840 70.363,74.805 71.604,74.280 71.560 C 73.975 71.535,73.897 72.080,74.149 72.477 C 74.370 72.826,74.165 73.333,73.803 73.333 C 73.523 73.333,73.485 73.432,73.530 74.042 C 73.578 74.675,73.542 74.756,73.196 74.805 C 72.910 74.845,72.837 74.933,72.916 75.138 C 73.113 75.642,73.087 75.736,72.708 75.908 C 72.474 76.015,72.333 76.226,72.333 76.472 C 72.333 76.952,71.733 77.833,71.405 77.833 C 71.262 77.833,71.167 78.000,71.167 78.250 C 71.167 78.479,71.092 78.667,71.000 78.667 C 70.908 78.667,70.833 78.764,70.833 78.882 C 70.833 79.353,69.430 80.642,68.792 80.757 C 68.424 80.824,68.167 80.966,68.167 81.102 C 68.167 81.229,68.054 81.333,67.917 81.333 C 67.778 81.333,67.667 81.481,67.667 81.667 C 67.667 81.852,67.556 82.000,67.417 82.000 C 67.279 82.000,67.167 82.112,67.167 82.250 C 67.167 82.387,67.092 82.500,67.000 82.500 C 66.908 82.500,66.832 82.669,66.830 82.875 C 66.825 83.566,64.887 85.075,64.198 84.924 C 63.765 84.828,63.717 84.869,63.573 85.452 C 63.474 85.853,63.280 86.143,63.042 86.248 C 62.835 86.338,62.667 86.470,62.667 86.540 C 62.667 86.609,62.488 86.667,62.269 86.667 C 62.022 86.667,61.842 86.784,61.791 86.977 C 61.676 87.417,60.746 87.841,60.154 87.723 C 59.738 87.639,59.667 87.677,59.667 87.979 C 59.667 88.183,59.560 88.333,59.417 88.333 C 59.273 88.333,59.167 88.484,59.167 88.688 C 59.167 88.990,59.096 89.028,58.677 88.944 C 58.263 88.861,58.180 88.903,58.136 89.215 C 58.095 89.500,57.982 89.577,57.635 89.553 C 57.290 89.530,57.175 89.607,57.135 89.885 C 57.106 90.091,56.940 90.273,56.750 90.307 C 56.567 90.340,56.297 90.473,56.151 90.602 C 56.006 90.731,55.499 90.929,55.026 91.041 C 54.393 91.192,54.167 91.323,54.167 91.539 C 54.167 91.847,54.046 91.888,53.292 91.838 C 52.933 91.815,52.833 91.882,52.833 92.144 C 52.833 92.434,52.755 92.466,52.250 92.384 C 51.736 92.301,51.667 92.332,51.667 92.645 C 51.667 92.969,51.576 93.000,50.647 93.000 C 49.710 93.000,49.635 92.973,49.715 92.667 C 49.791 92.375,49.720 92.333,49.151 92.333 C 48.675 92.333,48.500 92.264,48.500 92.076 C 48.500 91.881,48.348 91.831,47.875 91.868 C 47.336 91.910,47.243 91.865,47.197 91.541 C 47.153 91.232,47.070 91.184,46.728 91.270 C 46.398 91.353,46.294 91.302,46.220 91.021 C 46.149 90.748,45.999 90.667,45.564 90.667 C 45.111 90.667,45.000 90.601,45.000 90.333 C 45.000 90.088,44.889 90.000,44.578 90.000 C 43.796 90.000,42.951 89.540,43.048 89.167 C 43.145 88.796,43.000 88.734,42.711 89.022 C 42.465 89.268,42.000 89.086,42.000 88.743 C 42.000 88.596,41.887 88.363,41.748 88.225 C 41.610 88.086,41.532 87.917,41.574 87.848 C 41.617 87.779,41.543 87.722,41.409 87.722 C 41.276 87.722,41.167 87.785,41.167 87.861 C 41.167 88.093,40.554 88.016,40.339 87.757 C 40.229 87.624,40.194 87.425,40.262 87.315 C 40.352 87.168,40.245 87.143,39.859 87.220 C 39.550 87.282,39.333 87.256,39.333 87.158 C 39.333 87.067,39.146 86.920,38.917 86.833 C 38.667 86.739,38.500 86.543,38.500 86.347 C 38.500 86.167,38.424 85.973,38.331 85.915 C 38.237 85.857,38.201 85.746,38.250 85.667 C 38.299 85.588,38.105 85.553,37.821 85.589 C 37.143 85.675,35.430 84.451,35.556 83.971 C 35.600 83.804,35.567 83.667,35.484 83.667 C 35.401 83.667,35.333 83.554,35.333 83.417 C 35.333 83.279,35.221 83.167,35.083 83.167 C 34.944 83.167,34.833 83.019,34.833 82.833 C 34.833 82.611,34.722 82.500,34.500 82.500 C 34.315 82.500,34.167 82.389,34.167 82.250 C 34.167 82.112,34.054 82.000,33.917 82.000 C 33.773 82.000,33.667 81.850,33.667 81.647 C 33.667 81.384,33.587 81.315,33.354 81.376 C 33.114 81.439,33.061 81.386,33.124 81.146 C 33.185 80.913,33.116 80.833,32.853 80.833 C 32.650 80.833,32.500 80.727,32.500 80.583 C 32.500 80.446,32.387 80.333,32.250 80.333 C 32.112 80.333,32.000 80.199,32.000 80.035 C 32.000 79.824,31.790 79.679,31.292 79.543 C 30.504 79.329,30.167 78.832,30.167 77.883 C 30.167 77.506,30.088 77.333,29.917 77.333 C 29.779 77.333,29.667 77.258,29.667 77.167 C 29.667 77.075,29.517 77.000,29.333 77.000 C 29.063 77.000,29.000 76.889,29.000 76.417 C 29.000 75.933,28.939 75.833,28.646 75.833 C 28.343 75.833,28.306 75.763,28.390 75.344 C 28.472 74.930,28.431 74.847,28.119 74.802 C 27.805 74.758,27.757 74.660,27.796 74.146 C 27.835 73.647,27.780 73.525,27.484 73.448 C 27.153 73.361,27.134 73.284,27.242 72.427 C 27.349 71.566,27.333 71.500,27.015 71.500 C 26.482 71.500,26.489 71.760,26.538 53.502 C 26.583 36.405,26.586 36.254,26.917 36.191 C 27.100 36.157,27.296 36.056,27.352 35.967 C 27.507 35.721,29.431 35.587,29.570 35.812 C 29.764 36.126,30.676 36.052,30.554 35.733 C 30.388 35.300,30.844 35.158,32.042 35.271 C 33.104 35.371,33.167 35.357,33.167 35.029 C 33.167 34.602,34.204 34.339,34.691 34.643 C 35.234 34.982,36.220 34.890,36.121 34.509 C 36.008 34.076,36.690 33.928,38.102 34.079 C 39.094 34.185,39.167 34.170,39.167 33.860 C 39.167 33.466,40.082 33.182,40.383 33.483 C 40.714 33.814,41.667 33.712,41.667 33.345 C 41.667 32.931,43.283 32.539,43.814 32.823 C 44.282 33.073,44.833 33.043,44.833 32.766 C 44.833 32.463,45.710 32.153,46.018 32.348 C 46.490 32.647,47.667 32.530,47.667 32.184 C 47.667 31.714,48.831 31.425,49.083 31.833 C 49.140 31.925,49.576 31.994,50.052 31.987 C 50.527 31.980,50.823 31.936,50.708 31.890 C 50.289 31.720,50.492 31.333,51.000 31.333 C 51.322 31.333,51.500 31.418,51.500 31.571 M63.305 45.529 C 63.256 45.875,63.175 45.911,62.542 45.864 C 61.987 45.822,61.833 45.868,61.833 46.072 C 61.833 46.216,61.721 46.333,61.583 46.333 C 61.446 46.333,61.333 46.446,61.333 46.583 C 61.333 46.721,61.221 46.833,61.083 46.833 C 60.944 46.833,60.833 46.981,60.833 47.167 C 60.833 47.350,60.763 47.500,60.678 47.500 C 60.592 47.500,60.498 47.706,60.469 47.958 C 60.424 48.350,60.313 48.438,59.708 48.565 C 59.296 48.652,59.000 48.809,59.000 48.940 C 59.000 49.065,58.887 49.167,58.750 49.167 C 58.611 49.167,58.500 49.315,58.500 49.500 C 58.500 49.719,58.389 49.833,58.176 49.833 C 57.929 49.833,57.820 49.999,57.714 50.537 C 57.583 51.199,57.532 51.250,56.871 51.380 C 56.333 51.487,56.167 51.596,56.167 51.843 C 56.167 52.056,56.052 52.167,55.833 52.167 C 55.648 52.167,55.500 52.278,55.500 52.417 C 55.500 52.554,55.387 52.667,55.250 52.667 C 55.112 52.667,55.000 52.779,55.000 52.917 C 55.000 53.054,54.887 53.167,54.750 53.167 C 54.611 53.167,54.500 53.315,54.500 53.500 C 54.500 53.722,54.389 53.833,54.167 53.833 C 53.981 53.833,53.833 53.944,53.833 54.083 C 53.833 54.221,53.740 54.334,53.625 54.334 C 53.510 54.335,53.304 54.691,53.167 55.126 C 52.934 55.861,52.867 55.927,52.208 56.065 C 51.796 56.152,51.500 56.309,51.500 56.440 C 51.500 56.565,51.387 56.667,51.250 56.667 C 51.111 56.667,51.000 56.815,51.000 57.000 C 51.000 57.219,50.889 57.333,50.676 57.333 C 50.429 57.333,50.320 57.499,50.214 58.037 C 50.083 58.699,50.032 58.750,49.371 58.880 C 48.933 58.967,48.667 59.111,48.667 59.260 C 48.667 59.392,48.554 59.500,48.417 59.500 C 48.278 59.500,48.167 59.648,48.167 59.833 C 48.167 60.049,48.056 60.167,47.853 60.167 C 47.621 60.167,47.491 60.360,47.351 60.917 C 47.210 61.477,47.082 61.667,46.845 61.667 C 46.307 61.667,46.000 61.855,46.000 62.184 C 46.000 62.561,45.742 62.604,45.606 62.250 C 45.554 62.112,45.396 62.000,45.255 62.000 C 45.115 62.000,45.000 61.934,45.000 61.852 C 45.000 61.686,43.092 59.667,42.935 59.667 C 42.818 59.667,42.167 59.038,42.167 58.924 C 42.167 58.779,41.317 58.000,41.159 58.000 C 41.072 58.000,41.000 57.929,41.000 57.842 C 41.000 57.667,40.268 56.833,40.114 56.833 C 39.931 56.833,39.167 56.045,39.167 55.856 C 39.167 55.752,39.054 55.667,38.917 55.667 C 38.779 55.667,38.667 55.607,38.667 55.533 C 38.667 55.460,38.397 55.303,38.068 55.184 C 37.606 55.017,37.489 54.895,37.553 54.650 C 37.629 54.359,37.531 54.333,36.318 54.333 C 35.132 54.333,35.000 54.365,35.000 54.652 C 35.000 54.864,34.752 55.090,34.258 55.330 C 33.849 55.527,33.469 55.834,33.413 56.011 C 33.349 56.213,33.160 56.333,32.905 56.333 C 32.611 56.333,32.500 56.425,32.500 56.667 C 32.500 56.850,32.421 57.000,32.323 57.000 C 32.226 57.000,32.193 56.925,32.250 56.833 C 32.307 56.742,32.274 56.667,32.177 56.667 C 32.064 56.667,32.000 57.266,32.000 58.315 C 32.000 59.782,32.032 59.960,32.292 59.940 C 32.519 59.922,32.578 60.036,32.559 60.458 C 32.538 60.924,32.590 61.000,32.928 61.000 C 33.144 61.000,33.392 61.132,33.479 61.294 C 33.566 61.456,34.776 62.712,36.169 64.086 C 37.561 65.459,38.787 66.680,38.892 66.798 C 38.997 66.916,39.293 67.216,39.549 67.465 C 39.806 67.713,40.331 68.242,40.716 68.640 C 41.918 69.881,43.349 71.244,43.596 71.383 C 43.727 71.457,43.833 71.663,43.833 71.842 C 43.833 72.206,43.899 72.231,44.303 72.020 C 44.747 71.787,45.389 72.102,45.285 72.502 C 45.208 72.794,45.281 72.833,45.904 72.833 C 46.529 72.833,46.608 72.790,46.597 72.458 C 46.585 72.118,46.649 72.088,47.292 72.136 C 47.918 72.183,48.000 72.148,48.000 71.837 C 48.000 71.525,48.066 71.497,48.583 71.594 C 49.100 71.691,49.167 71.664,49.167 71.352 C 49.167 71.111,49.272 71.000,49.500 71.000 C 49.685 71.000,49.833 70.889,49.833 70.750 C 49.833 70.612,49.946 70.500,50.083 70.500 C 50.222 70.500,50.333 70.352,50.333 70.167 C 50.333 69.944,50.444 69.833,50.667 69.833 C 50.852 69.833,51.000 69.722,51.000 69.583 C 51.000 69.446,51.112 69.333,51.250 69.333 C 51.389 69.333,51.500 69.185,51.500 69.000 C 51.500 68.778,51.611 68.667,51.833 68.667 C 52.019 68.667,52.167 68.556,52.167 68.417 C 52.167 68.279,52.279 68.167,52.417 68.167 C 52.556 68.167,52.667 68.019,52.667 67.833 C 52.667 67.648,52.778 67.500,52.917 67.500 C 53.054 67.500,53.167 67.387,53.167 67.250 C 53.167 67.111,53.315 67.000,53.500 67.000 C 53.685 67.000,53.833 66.889,53.833 66.750 C 53.833 66.612,53.946 66.500,54.083 66.500 C 54.222 66.500,54.333 66.352,54.333 66.167 C 54.333 65.944,54.444 65.833,54.667 65.833 C 54.852 65.833,55.000 65.722,55.000 65.583 C 55.000 65.446,55.112 65.333,55.250 65.333 C 55.389 65.333,55.500 65.185,55.500 65.000 C 55.500 64.778,55.611 64.667,55.833 64.667 C 56.019 64.667,56.167 64.556,56.167 64.417 C 56.167 64.279,56.279 64.167,56.417 64.167 C 56.556 64.167,56.667 64.019,56.667 63.833 C 56.667 63.611,56.778 63.500,57.000 63.500 C 57.185 63.500,57.333 63.389,57.333 63.250 C 57.333 63.112,57.446 63.000,57.583 63.000 C 57.722 63.000,57.833 62.852,57.833 62.667 C 57.833 62.444,57.944 62.333,58.167 62.333 C 58.352 62.333,58.500 62.222,58.500 62.083 C 58.500 61.946,58.612 61.833,58.750 61.833 C 58.887 61.833,59.000 61.721,59.000 61.583 C 59.000 61.446,59.112 61.333,59.250 61.333 C 59.389 61.333,59.500 61.185,59.500 61.000 C 59.500 60.778,59.611 60.667,59.833 60.667 C 60.019 60.667,60.167 60.556,60.167 60.417 C 60.167 60.279,60.279 60.167,60.417 60.167 C 60.556 60.167,60.667 60.019,60.667 59.833 C 60.667 59.611,60.778 59.500,61.000 59.500 C 61.185 59.500,61.333 59.389,61.333 59.250 C 61.333 59.112,61.446 59.000,61.583 59.000 C 61.722 59.000,61.833 58.852,61.833 58.667 C 61.833 58.444,61.944 58.333,62.167 58.333 C 62.352 58.333,62.500 58.222,62.500 58.083 C 62.500 57.946,62.612 57.833,62.750 57.833 C 62.889 57.833,63.000 57.685,63.000 57.500 C 63.000 57.278,63.111 57.167,63.333 57.167 C 63.519 57.167,63.667 57.056,63.667 56.917 C 63.667 56.779,63.779 56.667,63.917 56.667 C 64.056 56.667,64.167 56.519,64.167 56.333 C 64.167 56.148,64.278 56.000,64.417 56.000 C 64.554 56.000,64.667 55.887,64.667 55.750 C 64.667 55.611,64.815 55.500,65.000 55.500 C 65.185 55.500,65.333 55.389,65.333 55.250 C 65.333 55.112,65.446 55.000,65.583 55.000 C 65.722 55.000,65.833 54.852,65.833 54.667 C 65.833 54.444,65.944 54.333,66.167 54.333 C 66.352 54.333,66.500 54.222,66.500 54.083 C 66.500 53.946,66.612 53.833,66.750 53.833 C 66.889 53.833,67.000 53.685,67.000 53.500 C 67.000 53.278,67.111 53.167,67.333 53.167 C 67.519 53.167,67.667 53.056,67.667 52.917 C 67.667 52.779,67.779 52.667,67.917 52.667 C 68.056 52.667,68.167 52.519,68.167 52.333 C 68.167 52.111,68.278 52.000,68.500 52.000 C 68.865 52.000,68.941 51.675,68.646 51.379 C 68.336 51.069,68.616 50.000,69.008 50.000 C 69.283 50.000,69.333 49.883,69.333 49.250 C 69.333 48.838,69.277 48.509,69.208 48.520 C 68.714 48.598,68.626 48.476,68.712 47.833 C 68.785 47.289,68.751 47.166,68.526 47.165 C 68.374 47.164,67.998 46.904,67.690 46.587 C 67.382 46.270,66.989 45.966,66.815 45.911 C 66.641 45.855,66.500 45.658,66.500 45.468 C 66.500 45.164,66.438 45.141,65.958 45.261 C 65.260 45.436,63.995 45.442,63.638 45.273 C 63.425 45.172,63.347 45.232,63.305 45.529 " stroke="none" fill="#3ebcdc" fill-rule="evenodd"></path><path id="path2" d="M49.444 22.944 C 49.253 23.136,49.323 23.333,49.583 23.333 C 49.721 23.333,49.833 23.221,49.833 23.083 C 49.833 22.823,49.636 22.753,49.444 22.944 M51.833 23.073 C 51.833 23.389,52.072 23.526,52.402 23.399 C 52.824 23.237,52.716 22.833,52.250 22.833 C 51.998 22.833,51.833 22.928,51.833 23.073 M45.863 23.708 C 45.912 24.047,46.002 24.081,46.807 24.059 C 48.423 24.016,48.427 23.333,46.812 23.333 C 45.868 23.333,45.813 23.355,45.863 23.708 M53.942 23.459 C 53.725 23.810,54.174 24.043,55.106 24.063 C 55.979 24.081,56.083 24.048,56.083 23.750 C 56.083 23.397,54.143 23.133,53.942 23.459 M43.560 24.083 C 43.419 24.451,43.709 24.707,44.189 24.639 C 44.454 24.602,44.583 24.474,44.583 24.250 C 44.583 23.815,43.718 23.674,43.560 24.083 M57.230 24.075 C 57.179 24.208,57.186 24.396,57.245 24.492 C 57.458 24.836,58.500 24.635,58.500 24.250 C 58.500 23.820,57.387 23.667,57.230 24.075 M40.667 24.816 C 40.667 25.197,41.050 25.369,41.597 25.232 C 42.318 25.051,42.120 24.500,41.333 24.500 C 40.790 24.500,40.667 24.559,40.667 24.816 M59.938 24.633 C 59.700 25.018,60.704 25.475,61.149 25.185 C 61.561 24.917,61.225 24.500,60.598 24.500 C 60.280 24.500,59.983 24.560,59.938 24.633 M37.230 25.242 C 37.053 25.704,37.349 25.874,38.192 25.793 C 39.112 25.705,39.250 25.624,39.109 25.257 C 38.974 24.905,37.364 24.892,37.230 25.242 M62.728 25.248 C 62.579 25.635,62.728 25.714,63.765 25.800 C 64.667 25.875,64.694 25.865,64.639 25.480 C 64.568 24.974,62.910 24.773,62.728 25.248 M34.833 25.908 C 34.833 26.224,35.298 26.478,35.690 26.375 C 36.280 26.221,36.066 25.667,35.417 25.667 C 35.018 25.667,34.833 25.743,34.833 25.908 M65.833 25.911 C 65.833 26.224,66.398 26.529,66.738 26.398 C 67.275 26.192,67.045 25.667,66.417 25.667 C 66.015 25.667,65.833 25.743,65.833 25.911 M32.063 26.409 C 31.927 26.764,32.133 27.000,32.580 27.000 C 33.191 27.000,33.500 26.826,33.500 26.482 C 33.500 26.080,32.215 26.014,32.063 26.409 M68.434 26.433 C 68.292 26.801,68.358 26.852,69.175 27.002 C 70.114 27.173,70.530 27.045,70.467 26.603 C 70.398 26.122,68.610 25.972,68.434 26.433 M28.500 27.147 C 28.500 27.591,29.003 27.723,29.836 27.499 C 30.792 27.242,30.598 26.928,29.445 26.867 C 28.597 26.822,28.500 26.851,28.500 27.147 M71.530 27.118 C 71.647 27.724,73.333 27.758,73.333 27.155 C 73.333 26.876,73.211 26.833,72.404 26.833 C 71.618 26.833,71.484 26.877,71.530 27.118 M26.278 27.444 C 25.889 27.834,26.521 28.288,27.167 28.083 C 27.754 27.897,27.587 27.333,26.944 27.333 C 26.639 27.333,26.339 27.383,26.278 27.444 M74.500 27.655 C 74.500 28.013,74.971 28.231,75.393 28.069 C 75.940 27.860,75.718 27.333,75.083 27.333 C 74.618 27.333,74.500 27.398,74.500 27.655 M22.833 28.316 C 22.833 28.834,23.284 28.897,24.542 28.557 C 25.279 28.357,24.825 28.000,23.833 28.000 C 22.963 28.000,22.833 28.041,22.833 28.316 M77.167 28.244 C 77.167 28.563,78.478 28.928,78.830 28.707 C 79.490 28.292,79.221 28.000,78.179 28.000 C 77.402 28.000,77.167 28.057,77.167 28.244 M21.109 28.743 C 21.040 28.923,21.113 29.000,21.352 29.000 C 21.542 29.000,21.665 28.912,21.628 28.802 C 21.526 28.493,21.218 28.458,21.109 28.743 M80.000 28.819 C 80.000 29.159,80.281 29.334,80.625 29.208 C 81.028 29.060,80.863 28.500,80.417 28.500 C 80.117 28.500,80.000 28.590,80.000 28.819 M20.095 29.262 C 19.796 29.561,19.794 29.587,20.067 29.640 C 20.437 29.711,20.544 29.603,20.473 29.233 C 20.421 28.961,20.394 28.963,20.095 29.262 M82.000 30.528 C 82.000 30.717,82.121 30.833,82.318 30.833 C 82.544 30.833,82.612 30.745,82.556 30.528 C 82.512 30.360,82.369 30.222,82.238 30.222 C 82.107 30.222,82.000 30.360,82.000 30.528 M18.178 31.625 C 18.197 32.906,18.406 33.222,18.733 32.464 C 19.154 31.487,19.094 30.833,18.583 30.833 C 18.196 30.833,18.167 30.889,18.178 31.625 M50.500 31.569 C 50.500 31.848,50.801 31.976,51.208 31.870 C 51.707 31.741,51.548 31.333,51.000 31.333 C 50.680 31.333,50.500 31.418,50.500 31.569 M82.450 31.439 C 82.277 31.612,82.312 72.375,82.486 72.649 C 82.567 72.777,82.753 72.836,82.900 72.779 C 83.303 72.625,83.228 31.449,82.825 31.372 C 82.683 31.344,82.514 31.374,82.450 31.439 M47.875 31.773 C 47.299 32.016,47.667 32.500,48.428 32.500 C 49.123 32.500,49.185 32.467,49.137 32.125 C 49.083 31.749,48.390 31.556,47.875 31.773 M52.730 31.909 C 52.570 32.325,52.826 32.500,53.593 32.500 C 54.208 32.500,54.333 32.447,54.333 32.184 C 54.333 31.659,52.919 31.415,52.730 31.909 M45.292 32.370 C 44.542 32.628,44.714 33.000,45.583 33.000 C 46.131 33.000,46.333 32.934,46.333 32.756 C 46.333 32.382,45.814 32.190,45.292 32.370 M55.756 32.391 C 55.295 32.729,55.594 33.000,56.427 33.000 C 57.319 33.000,57.442 32.629,56.642 32.350 C 56.008 32.129,56.123 32.123,55.756 32.391 M42.375 32.861 C 41.091 33.149,41.385 33.667,42.833 33.667 C 43.953 33.667,44.000 33.651,44.000 33.268 C 44.000 32.665,43.646 32.576,42.375 32.861 M58.042 32.857 C 57.493 33.410,57.907 33.667,59.347 33.667 C 60.457 33.667,60.846 33.128,59.875 32.936 C 58.535 32.670,58.240 32.657,58.042 32.857 M39.458 33.445 C 38.826 33.617,39.121 34.167,39.845 34.167 C 40.453 34.167,40.518 34.128,40.470 33.792 C 40.416 33.412,40.046 33.286,39.458 33.445 M61.517 33.486 C 61.389 33.567,61.331 33.753,61.387 33.900 C 61.525 34.260,62.833 34.280,62.833 33.923 C 62.833 33.470,61.986 33.189,61.517 33.486 M36.310 34.111 C 36.132 34.159,36.066 34.298,36.121 34.509 C 36.229 34.921,37.833 34.986,38.161 34.591 C 38.572 34.095,37.457 33.806,36.310 34.111 M64.375 34.110 C 63.763 34.357,64.175 34.833,65.000 34.833 C 65.705 34.833,65.833 34.785,65.833 34.519 C 65.833 34.105,64.980 33.866,64.375 34.110 M33.458 34.611 C 32.737 34.809,33.138 35.333,34.012 35.333 C 34.792 35.333,34.852 35.305,34.803 34.958 C 34.749 34.576,34.151 34.421,33.458 34.611 M67.278 34.611 C 66.874 35.015,67.192 35.333,68.000 35.333 C 68.621 35.333,68.833 35.271,68.833 35.089 C 68.833 34.652,67.612 34.277,67.278 34.611 M70.279 35.194 C 70.126 35.280,70.000 35.500,70.000 35.685 C 70.000 36.128,71.381 36.090,71.465 35.644 C 71.532 35.295,70.678 34.971,70.279 35.194 M30.684 35.319 C 30.307 35.558,30.603 36.000,31.141 36.000 C 31.659 36.000,32.099 35.628,31.921 35.341 C 31.791 35.129,31.005 35.116,30.684 35.319 M27.708 35.781 C 27.502 35.822,27.333 35.921,27.333 36.000 C 27.333 36.079,27.165 36.167,26.958 36.197 L 26.583 36.250 26.538 53.500 C 26.489 71.696,26.484 71.500,27.003 71.500 C 27.330 71.500,27.333 71.333,27.333 54.008 L 27.333 36.515 28.458 36.466 C 29.456 36.422,29.583 36.379,29.583 36.083 C 29.583 35.739,28.654 35.589,27.708 35.781 M72.944 35.778 C 72.604 36.118,72.854 36.500,73.417 36.500 L 74.000 36.500 74.000 53.990 C 74.000 66.405,74.053 71.513,74.181 71.592 C 74.736 71.935,74.750 71.495,74.750 53.839 L 74.750 36.361 74.349 36.014 C 73.964 35.680,73.175 35.547,72.944 35.778 M63.667 44.982 C 63.667 45.460,64.500 45.652,65.458 45.395 C 66.366 45.152,65.895 44.667,64.750 44.667 C 63.798 44.667,63.667 44.705,63.667 44.982 M62.530 45.542 C 62.565 45.788,62.698 45.917,62.917 45.917 C 63.135 45.917,63.268 45.788,63.303 45.542 C 63.347 45.234,63.277 45.167,62.917 45.167 C 62.556 45.167,62.486 45.234,62.530 45.542 M66.500 45.489 C 66.500 45.666,66.642 45.856,66.815 45.911 C 66.989 45.966,67.382 46.270,67.690 46.587 C 67.998 46.904,68.381 47.164,68.542 47.165 C 68.960 47.167,68.924 46.492,68.500 46.382 C 68.317 46.334,68.167 46.191,68.167 46.064 C 68.167 45.937,68.054 45.833,67.917 45.833 C 67.779 45.833,67.667 45.729,67.667 45.601 C 67.667 45.346,67.316 45.167,66.820 45.167 C 66.615 45.167,66.500 45.282,66.500 45.489 M59.667 48.012 C 59.667 48.447,59.723 48.515,60.042 48.470 C 60.631 48.386,60.679 47.500,60.094 47.500 C 59.728 47.500,59.667 47.573,59.667 48.012 M68.667 47.982 C 68.667 48.432,69.008 48.770,69.234 48.544 C 69.499 48.279,69.325 47.500,69.000 47.500 C 68.743 47.500,68.667 47.611,68.667 47.982 M68.570 50.596 C 68.447 51.252,68.656 51.604,69.072 51.444 C 69.491 51.283,69.434 50.000,69.008 50.000 C 68.766 50.000,68.653 50.154,68.570 50.596 M56.867 50.533 C 56.478 50.922,56.625 51.360,57.125 51.303 C 57.485 51.261,57.595 51.152,57.636 50.792 C 57.694 50.291,57.256 50.144,56.867 50.533 M33.875 54.444 C 33.760 54.490,33.667 54.634,33.667 54.764 C 33.667 54.894,33.554 55.000,33.417 55.000 C 33.279 55.000,33.167 55.104,33.167 55.231 C 33.167 55.357,33.017 55.500,32.833 55.548 C 32.634 55.600,32.500 55.776,32.500 55.984 C 32.500 56.453,33.266 56.476,33.413 56.011 C 33.469 55.834,33.849 55.527,34.258 55.330 C 35.411 54.771,35.063 53.964,33.875 54.444 M37.611 54.444 C 37.354 54.702,37.537 54.992,38.083 55.189 C 38.404 55.305,38.667 55.460,38.667 55.533 C 38.667 55.607,38.779 55.667,38.917 55.667 C 39.054 55.667,39.167 55.752,39.167 55.856 C 39.167 56.045,39.931 56.833,40.114 56.833 C 40.268 56.833,41.000 57.667,41.000 57.842 C 41.000 57.929,41.072 58.000,41.159 58.000 C 41.317 58.000,42.167 58.779,42.167 58.924 C 42.167 59.038,42.818 59.667,42.935 59.667 C 43.092 59.667,45.000 61.686,45.000 61.852 C 45.000 61.934,45.109 62.000,45.242 62.000 C 45.375 62.000,45.557 62.131,45.646 62.290 C 45.882 62.713,46.050 62.440,45.919 61.845 C 45.841 61.491,45.709 61.333,45.487 61.333 C 45.278 61.333,45.167 61.218,45.167 61.000 C 45.167 60.815,45.056 60.667,44.917 60.667 C 44.779 60.667,44.667 60.554,44.667 60.417 C 44.667 60.278,44.519 60.167,44.333 60.167 C 44.111 60.167,44.000 60.056,44.000 59.833 C 44.000 59.648,43.889 59.500,43.750 59.500 C 43.612 59.500,43.500 59.387,43.500 59.250 C 43.500 59.111,43.352 59.000,43.167 59.000 C 42.944 59.000,42.833 58.889,42.833 58.667 C 42.833 58.481,42.722 58.333,42.583 58.333 C 42.446 58.333,42.333 58.221,42.333 58.083 C 42.333 57.944,42.185 57.833,42.000 57.833 C 41.815 57.833,41.667 57.722,41.667 57.583 C 41.667 57.446,41.554 57.333,41.417 57.333 C 41.278 57.333,41.167 57.185,41.167 57.000 C 41.167 56.778,41.056 56.667,40.833 56.667 C 40.648 56.667,40.500 56.556,40.500 56.417 C 40.500 56.279,40.387 56.167,40.250 56.167 C 40.111 56.167,40.000 56.019,40.000 55.833 C 40.000 55.648,39.889 55.500,39.750 55.500 C 39.612 55.500,39.500 55.387,39.500 55.250 C 39.500 55.112,39.359 55.000,39.186 55.000 C 39.012 55.000,38.833 54.851,38.785 54.667 C 38.699 54.337,37.875 54.181,37.611 54.444 M52.167 55.500 C 52.167 56.093,52.710 56.209,52.994 55.678 C 53.273 55.156,53.198 55.000,52.667 55.000 C 52.222 55.000,52.167 55.056,52.167 55.500 M49.272 58.208 C 49.111 58.808,49.141 58.858,49.625 58.803 C 50.271 58.728,50.414 57.833,49.781 57.833 C 49.498 57.833,49.341 57.949,49.272 58.208 M32.115 59.941 C 31.858 60.198,32.007 60.667,32.345 60.667 C 32.604 60.667,32.677 60.577,32.637 60.305 C 32.581 59.929,32.313 59.742,32.115 59.941 M46.434 60.930 C 46.239 61.440,46.331 61.667,46.732 61.667 C 47.118 61.667,47.333 61.393,47.333 60.903 C 47.333 60.577,46.561 60.600,46.434 60.930 M32.500 61.349 C 32.500 61.558,32.634 61.733,32.833 61.785 C 33.017 61.833,33.167 61.976,33.167 62.103 C 33.167 62.230,33.279 62.333,33.417 62.333 C 33.556 62.333,33.667 62.481,33.667 62.667 C 33.667 62.889,33.778 63.000,34.000 63.000 C 34.185 63.000,34.333 63.111,34.333 63.250 C 34.333 63.387,34.446 63.500,34.583 63.500 C 34.722 63.500,34.833 63.648,34.833 63.833 C 34.833 64.056,34.944 64.167,35.167 64.167 C 35.352 64.167,35.500 64.278,35.500 64.417 C 35.500 64.554,35.612 64.667,35.750 64.667 C 35.887 64.667,36.001 64.760,36.003 64.875 C 36.006 65.129,36.726 65.833,36.982 65.833 C 37.083 65.833,37.168 65.927,37.170 66.042 C 37.173 66.296,37.892 67.000,38.148 67.000 C 38.250 67.000,38.333 67.112,38.333 67.250 C 38.333 67.387,38.437 67.500,38.564 67.500 C 38.691 67.500,38.834 67.650,38.882 67.833 C 38.930 68.017,39.088 68.167,39.234 68.167 C 39.380 68.167,39.500 68.279,39.500 68.417 C 39.500 68.554,39.612 68.667,39.750 68.667 C 39.889 68.667,40.000 68.815,40.000 69.000 C 40.000 69.222,40.111 69.333,40.333 69.333 C 40.519 69.333,40.667 69.444,40.667 69.583 C 40.667 69.721,40.770 69.833,40.897 69.833 C 41.024 69.833,41.167 69.983,41.215 70.167 C 41.263 70.350,41.422 70.500,41.568 70.500 C 41.714 70.500,41.833 70.612,41.833 70.750 C 41.833 70.887,41.946 71.000,42.083 71.000 C 42.221 71.000,42.333 71.083,42.333 71.185 C 42.333 71.516,43.074 72.161,43.458 72.164 C 43.890 72.167,43.989 71.604,43.596 71.383 C 43.349 71.244,41.918 69.881,40.716 68.640 C 40.331 68.242,39.806 67.713,39.549 67.465 C 39.293 67.216,38.997 66.916,38.892 66.798 C 38.787 66.680,37.561 65.459,36.169 64.086 C 34.776 62.712,33.566 61.456,33.479 61.294 C 33.248 60.862,32.500 60.904,32.500 61.349 M18.273 71.535 C 18.039 72.412,18.149 73.333,18.489 73.333 C 19.057 73.333,19.111 72.229,18.580 71.452 C 18.389 71.173,18.369 71.178,18.273 71.535 M48.000 71.821 C 48.000 72.060,48.107 72.167,48.346 72.167 C 48.773 72.167,48.724 71.615,48.290 71.531 C 48.090 71.493,48.000 71.583,48.000 71.821 M44.231 72.077 C 43.971 72.267,43.961 72.336,44.159 72.574 C 44.472 72.952,45.250 72.853,45.250 72.436 C 45.250 72.013,44.621 71.792,44.231 72.077 M46.563 72.242 C 46.434 72.580,46.627 72.833,47.015 72.833 C 47.421 72.833,47.633 72.353,47.316 72.152 C 46.970 71.933,46.668 71.969,46.563 72.242 M27.232 72.405 C 27.070 72.825,27.241 73.412,27.542 73.469 C 27.781 73.514,27.833 73.402,27.833 72.846 C 27.833 72.156,27.438 71.866,27.232 72.405 M73.500 72.750 C 73.500 73.210,73.566 73.333,73.814 73.333 C 74.179 73.333,74.358 72.837,74.137 72.440 C 73.859 71.944,73.500 72.118,73.500 72.750 M27.730 74.242 C 27.601 74.579,27.793 74.833,28.177 74.833 C 28.410 74.833,28.500 74.718,28.500 74.417 C 28.500 73.947,27.896 73.810,27.730 74.242 M72.833 74.417 C 72.833 74.777,72.901 74.847,73.208 74.803 C 73.454 74.768,73.583 74.635,73.583 74.417 C 73.583 74.198,73.454 74.065,73.208 74.030 C 72.901 73.986,72.833 74.056,72.833 74.417 M81.871 74.629 C 81.684 75.165,81.870 75.667,82.255 75.667 C 82.515 75.667,82.731 75.040,82.638 74.557 C 82.540 74.051,82.057 74.097,81.871 74.629 M18.778 74.444 C 18.548 74.674,18.679 75.000,19.000 75.000 C 19.222 75.000,19.333 74.889,19.333 74.667 C 19.333 74.345,19.007 74.215,18.778 74.444 M28.333 75.500 C 28.333 75.722,28.444 75.833,28.667 75.833 C 28.889 75.833,29.000 75.722,29.000 75.500 C 29.000 75.278,28.889 75.167,28.667 75.167 C 28.444 75.167,28.333 75.278,28.333 75.500 M72.333 75.583 C 72.333 76.020,72.635 76.132,72.954 75.813 C 73.213 75.554,73.030 75.167,72.649 75.167 C 72.423 75.167,72.333 75.286,72.333 75.583 M19.364 76.290 C 19.424 76.814,19.917 77.005,20.035 76.550 C 20.153 76.095,20.009 75.833,19.642 75.833 C 19.380 75.833,19.322 75.928,19.364 76.290 M81.363 76.375 C 81.393 76.581,81.529 76.750,81.667 76.750 C 81.804 76.750,81.941 76.581,81.970 76.375 C 82.011 76.086,81.941 76.000,81.667 76.000 C 81.392 76.000,81.322 76.086,81.363 76.375 M29.000 76.571 C 29.000 76.894,29.085 77.000,29.345 77.000 C 29.607 77.000,29.677 76.910,29.637 76.627 C 29.558 76.073,29.000 76.024,29.000 76.571 M71.875 76.277 C 71.760 76.323,71.667 76.467,71.667 76.597 C 71.667 76.727,71.554 76.833,71.417 76.833 C 71.250 76.833,71.167 77.000,71.167 77.333 C 71.167 77.656,71.251 77.833,71.405 77.833 C 71.719 77.833,72.333 76.961,72.333 76.516 C 72.333 76.164,72.256 76.123,71.875 76.277 M19.897 77.574 C 19.735 77.998,19.910 78.415,20.272 78.467 C 20.698 78.528,20.901 78.104,20.660 77.655 C 20.458 77.277,20.029 77.231,19.897 77.574 M80.679 77.645 C 80.433 78.104,80.631 78.529,81.063 78.467 C 81.333 78.429,81.417 78.299,81.417 77.919 C 81.417 77.320,80.946 77.145,80.679 77.645 M30.167 78.252 C 30.167 78.543,30.505 79.192,30.750 79.372 C 31.104 79.633,31.333 79.487,31.333 79.000 C 31.333 78.667,31.250 78.500,31.083 78.500 C 30.946 78.500,30.833 78.387,30.833 78.250 C 30.833 78.111,30.685 78.000,30.500 78.000 C 30.313 78.000,30.167 78.111,30.167 78.252 M70.500 78.250 C 70.500 78.387,70.387 78.500,70.250 78.500 C 70.111 78.500,70.000 78.648,70.000 78.833 C 70.000 79.017,69.917 79.167,69.815 79.167 C 69.713 79.167,69.452 79.335,69.235 79.542 C 68.763 79.989,68.695 80.667,69.123 80.667 C 69.446 80.667,70.833 79.219,70.833 78.882 C 70.833 78.764,70.908 78.667,71.000 78.667 C 71.092 78.667,71.167 78.517,71.167 78.333 C 71.167 78.111,71.056 78.000,70.833 78.000 C 70.648 78.000,70.500 78.111,70.500 78.250 M80.168 78.915 C 79.893 79.247,80.075 79.667,80.495 79.667 C 80.760 79.667,80.833 79.558,80.833 79.167 C 80.833 78.620,80.514 78.498,80.168 78.915 M21.000 80.238 C 21.000 80.766,21.048 80.833,21.427 80.833 C 22.022 80.833,21.974 79.782,21.375 79.697 C 21.046 79.650,21.000 79.717,21.000 80.238 M79.313 80.501 C 79.093 81.235,79.239 81.583,79.574 81.125 C 79.691 80.964,79.910 80.833,80.060 80.833 C 80.253 80.833,80.333 80.686,80.333 80.333 C 80.333 79.499,79.576 79.624,79.313 80.501 M22.167 82.083 C 22.167 82.389,22.256 82.500,22.500 82.500 C 22.722 82.500,22.833 82.611,22.833 82.833 C 22.833 83.017,22.904 83.167,22.990 83.167 C 23.314 83.167,23.354 82.798,23.091 82.242 C 22.756 81.536,22.167 81.435,22.167 82.083 M78.185 82.178 C 77.787 82.716,77.814 83.167,78.245 83.167 C 78.389 83.167,78.500 83.022,78.500 82.833 C 78.500 82.611,78.611 82.500,78.833 82.500 C 79.078 82.500,79.167 82.389,79.167 82.083 C 79.167 81.493,78.655 81.542,78.185 82.178 M66.048 82.833 C 66.000 83.018,65.821 83.167,65.647 83.167 C 65.475 83.167,65.333 83.279,65.333 83.417 C 65.333 83.554,65.221 83.667,65.083 83.667 C 64.944 83.667,64.833 83.815,64.833 84.000 C 64.833 84.222,64.722 84.333,64.500 84.333 C 64.278 84.333,64.167 84.444,64.167 84.667 C 64.167 85.152,64.598 85.080,65.393 84.464 C 66.563 83.556,66.827 83.264,66.830 82.875 C 66.834 82.384,66.175 82.349,66.048 82.833 M35.600 83.789 C 35.354 84.034,35.563 84.341,36.410 84.980 C 37.466 85.777,37.667 85.821,37.667 85.250 C 37.667 84.991,37.572 84.833,37.417 84.833 C 37.279 84.833,37.167 84.721,37.167 84.583 C 37.167 84.446,37.025 84.333,36.853 84.333 C 36.680 84.333,36.504 84.200,36.461 84.037 C 36.387 83.752,35.804 83.585,35.600 83.789 M24.000 84.404 C 24.000 84.719,24.087 84.833,24.325 84.833 C 24.504 84.833,24.727 84.965,24.820 85.125 C 24.982 85.403,24.990 85.403,24.995 85.125 C 24.998 84.965,24.930 84.833,24.845 84.833 C 24.760 84.833,24.666 84.665,24.637 84.460 C 24.558 83.906,24.000 83.857,24.000 84.404 M76.548 84.333 C 76.500 84.517,76.395 84.667,76.314 84.667 C 76.233 84.667,76.167 84.817,76.167 85.000 C 76.167 85.222,76.278 85.333,76.500 85.333 C 76.685 85.333,76.833 85.222,76.833 85.083 C 76.833 84.946,76.946 84.833,77.083 84.833 C 77.239 84.833,77.333 84.676,77.333 84.417 C 77.333 83.890,76.682 83.821,76.548 84.333 M62.500 85.750 C 62.500 85.888,62.393 86.000,62.261 86.000 C 62.130 86.000,61.975 86.150,61.917 86.333 C 61.843 86.567,61.664 86.667,61.322 86.667 C 60.999 86.667,60.833 86.751,60.833 86.917 C 60.833 87.056,60.685 87.167,60.500 87.167 C 60.150 87.167,60.042 87.570,60.342 87.755 C 60.609 87.920,61.696 87.340,61.790 86.983 C 61.842 86.784,62.020 86.667,62.269 86.667 C 62.488 86.667,62.667 86.609,62.667 86.540 C 62.667 86.470,62.835 86.338,63.041 86.248 C 63.646 85.982,63.627 85.500,63.012 85.500 C 62.668 85.500,62.500 85.582,62.500 85.750 M38.500 86.337 C 38.500 86.540,38.659 86.736,38.899 86.827 C 39.119 86.910,39.326 87.063,39.361 87.165 C 39.446 87.420,40.000 87.189,40.000 86.899 C 40.000 86.771,39.896 86.667,39.769 86.667 C 39.643 86.667,39.500 86.517,39.452 86.333 C 39.328 85.861,38.500 85.864,38.500 86.337 M40.245 87.341 C 40.095 87.584,40.478 88.000,40.854 88.000 C 41.076 88.000,41.167 87.880,41.167 87.583 C 41.167 87.144,40.479 86.963,40.245 87.341 M26.833 87.833 C 26.833 88.256,26.898 88.333,27.250 88.333 C 27.737 88.333,27.860 87.610,27.403 87.434 C 26.934 87.254,26.833 87.325,26.833 87.833 M42.030 88.708 C 42.065 88.954,42.198 89.083,42.417 89.083 C 42.635 89.083,42.768 88.954,42.803 88.708 C 42.847 88.401,42.777 88.333,42.417 88.333 C 42.056 88.333,41.986 88.401,42.030 88.708 M58.500 88.667 C 58.500 88.889,58.611 89.000,58.833 89.000 C 59.056 89.000,59.167 88.889,59.167 88.667 C 59.167 88.444,59.056 88.333,58.833 88.333 C 58.611 88.333,58.500 88.444,58.500 88.667 M43.111 88.944 C 42.734 89.322,43.636 90.023,44.453 89.987 C 44.629 89.979,44.665 89.939,44.541 89.889 C 44.425 89.843,44.375 89.734,44.428 89.648 C 44.481 89.562,44.427 89.512,44.308 89.538 C 44.189 89.563,44.066 89.415,44.034 89.208 C 43.978 88.842,43.383 88.672,43.111 88.944 M57.363 89.208 C 57.398 89.454,57.531 89.583,57.750 89.583 C 57.969 89.583,58.102 89.454,58.137 89.208 C 58.180 88.901,58.111 88.833,57.750 88.833 C 57.389 88.833,57.320 88.901,57.363 89.208 M56.227 89.750 C 56.171 89.895,55.922 90.000,55.633 90.000 C 55.276 90.000,55.111 90.094,55.048 90.333 C 55.000 90.517,54.857 90.667,54.731 90.667 C 54.604 90.667,54.500 90.787,54.500 90.935 C 54.500 91.279,55.449 91.061,56.333 90.512 C 56.471 90.427,56.715 90.317,56.875 90.267 C 57.035 90.218,57.167 90.025,57.167 89.839 C 57.167 89.428,56.379 89.354,56.227 89.750 M45.000 90.322 C 45.000 90.581,45.106 90.667,45.429 90.667 C 45.976 90.667,45.927 90.109,45.373 90.030 C 45.090 89.990,45.000 90.060,45.000 90.322 M70.708 90.227 C 70.221 90.468,70.190 91.167,70.667 91.167 C 70.889 91.167,71.000 91.056,71.000 90.833 C 71.000 90.611,71.111 90.500,71.333 90.500 C 71.519 90.500,71.667 90.389,71.667 90.250 C 71.667 89.965,71.257 89.955,70.708 90.227 M30.333 90.833 C 30.333 91.019,30.444 91.167,30.583 91.167 C 30.721 91.167,30.833 91.279,30.833 91.417 C 30.833 91.554,30.937 91.667,31.064 91.667 C 31.191 91.667,31.334 91.817,31.382 92.000 C 31.441 92.225,31.609 92.333,31.901 92.333 C 32.566 92.333,32.449 91.792,31.667 91.250 C 31.300 90.996,31.000 90.723,31.000 90.644 C 31.000 90.565,30.850 90.500,30.667 90.500 C 30.444 90.500,30.333 90.611,30.333 90.833 M46.198 90.956 C 46.282 91.391,46.833 91.439,46.833 91.012 C 46.833 90.774,46.726 90.667,46.488 90.667 C 46.249 90.667,46.160 90.756,46.198 90.956 M47.197 91.542 C 47.232 91.788,47.365 91.917,47.583 91.917 C 47.802 91.917,47.935 91.788,47.970 91.542 C 48.014 91.234,47.944 91.167,47.583 91.167 C 47.223 91.167,47.153 91.234,47.197 91.542 M53.333 91.486 C 53.333 91.826,53.615 92.001,53.958 91.874 C 54.361 91.726,54.196 91.167,53.750 91.167 C 53.450 91.167,53.333 91.256,53.333 91.486 M48.500 92.083 C 48.500 92.222,48.648 92.333,48.833 92.333 C 49.019 92.333,49.167 92.222,49.167 92.083 C 49.167 91.944,49.019 91.833,48.833 91.833 C 48.648 91.833,48.500 91.944,48.500 92.083 M52.167 92.083 C 52.167 92.221,52.198 92.333,52.236 92.333 C 52.275 92.333,52.425 92.379,52.570 92.434 C 52.759 92.507,52.833 92.436,52.833 92.184 C 52.833 91.944,52.728 91.833,52.500 91.833 C 52.315 91.833,52.167 91.944,52.167 92.083 M68.000 92.311 C 68.000 92.402,67.850 92.525,67.667 92.583 C 67.145 92.749,67.213 93.500,67.750 93.500 C 68.056 93.500,68.167 93.411,68.167 93.167 C 68.167 92.941,68.278 92.833,68.512 92.833 C 68.751 92.833,68.841 92.744,68.802 92.542 C 68.744 92.236,68.000 92.021,68.000 92.311 M49.781 92.441 C 49.545 92.677,49.679 93.000,50.012 93.000 C 50.245 93.000,50.340 92.909,50.304 92.722 C 50.244 92.415,49.960 92.262,49.781 92.441 M51.000 92.667 C 51.000 92.889,51.111 93.000,51.333 93.000 C 51.556 93.000,51.667 92.889,51.667 92.667 C 51.667 92.444,51.556 92.333,51.333 92.333 C 51.111 92.333,51.000 92.444,51.000 92.667 M33.167 93.083 C 33.167 93.343,33.261 93.500,33.417 93.500 C 33.554 93.500,33.667 93.612,33.667 93.750 C 33.667 93.917,33.833 94.000,34.167 94.000 C 34.806 94.000,34.878 93.405,34.266 93.173 C 34.046 93.089,33.817 92.941,33.756 92.844 C 33.546 92.504,33.167 92.658,33.167 93.083 M66.125 93.762 C 65.569 94.063,65.496 94.667,66.016 94.667 C 66.220 94.667,66.399 94.534,66.449 94.345 C 66.495 94.168,66.638 93.983,66.766 93.933 C 67.056 93.822,67.075 93.498,66.792 93.507 C 66.677 93.510,66.377 93.625,66.125 93.762 M34.833 94.239 C 34.833 94.370,34.983 94.525,35.167 94.583 C 35.350 94.642,35.500 94.797,35.500 94.928 C 35.500 95.073,35.668 95.167,35.928 95.167 C 36.498 95.167,36.450 94.445,35.875 94.363 C 35.669 94.334,35.500 94.240,35.500 94.155 C 35.500 94.070,35.350 94.000,35.167 94.000 C 34.983 94.000,34.833 94.107,34.833 94.239 M36.684 95.153 C 36.359 95.358,36.584 95.833,37.006 95.833 C 37.271 95.833,37.344 95.745,37.303 95.471 C 37.242 95.056,37.019 94.941,36.684 95.153 M63.944 95.111 C 63.883 95.172,63.833 95.365,63.833 95.539 C 63.833 96.015,64.567 95.865,64.637 95.375 C 64.689 95.007,64.225 94.830,63.944 95.111 M63.000 95.819 C 63.000 95.919,62.865 96.000,62.700 96.000 C 62.349 96.000,62.000 96.307,62.000 96.617 C 62.000 96.746,62.201 96.833,62.500 96.833 C 62.833 96.833,63.000 96.750,63.000 96.583 C 63.000 96.446,63.118 96.333,63.262 96.333 C 63.417 96.333,63.502 96.220,63.471 96.055 C 63.410 95.744,63.000 95.538,63.000 95.819 M38.450 96.272 C 38.188 96.534,38.355 96.833,38.762 96.833 C 39.080 96.833,39.177 96.758,39.135 96.544 C 39.077 96.240,38.651 96.071,38.450 96.272 M61.111 96.778 C 60.828 97.061,61.013 97.500,61.417 97.500 C 61.750 97.500,61.833 97.417,61.833 97.083 C 61.833 96.680,61.395 96.494,61.111 96.778 M39.500 97.167 C 39.500 97.389,39.611 97.500,39.833 97.500 C 40.056 97.500,40.167 97.389,40.167 97.167 C 40.167 96.944,40.056 96.833,39.833 96.833 C 39.611 96.833,39.500 96.944,39.500 97.167 M60.000 97.654 C 60.000 97.893,60.107 98.000,60.346 98.000 C 60.773 98.000,60.724 97.448,60.290 97.365 C 60.090 97.326,60.000 97.416,60.000 97.654 M40.884 97.742 C 41.040 97.897,41.167 98.168,41.167 98.345 C 41.167 98.601,41.285 98.667,41.750 98.667 C 42.888 98.667,42.461 97.859,41.176 97.583 C 40.637 97.467,40.619 97.476,40.884 97.742 M58.833 98.333 C 58.833 98.556,58.944 98.667,59.167 98.667 C 59.389 98.667,59.500 98.556,59.500 98.333 C 59.500 98.111,59.389 98.000,59.167 98.000 C 58.944 98.000,58.833 98.111,58.833 98.333 M43.529 99.363 C 43.603 99.891,44.583 99.940,44.583 99.417 C 44.583 99.161,44.454 99.071,44.029 99.030 C 43.532 98.982,43.480 99.017,43.529 99.363 M56.723 99.261 C 56.585 99.619,56.881 99.873,57.356 99.806 C 57.616 99.769,57.768 99.622,57.803 99.375 C 57.869 98.914,56.895 98.811,56.723 99.261 M45.278 99.778 C 45.025 100.031,45.191 100.333,45.583 100.333 C 45.889 100.333,46.000 100.244,46.000 100.000 C 46.000 99.675,45.526 99.529,45.278 99.778 M55.500 100.016 C 55.500 100.383,55.921 100.447,56.054 100.100 C 56.107 99.961,56.013 99.832,55.822 99.782 C 55.587 99.721,55.500 99.784,55.500 100.016 M46.625 100.292 C 46.261 100.374,46.243 100.763,46.597 100.899 C 47.035 101.067,47.167 101.016,47.167 100.677 C 47.167 100.298,47.028 100.200,46.625 100.292 M54.333 100.573 C 54.333 100.706,54.420 100.867,54.526 100.933 C 54.645 101.006,54.673 100.978,54.599 100.859 C 54.529 100.745,54.586 100.667,54.740 100.667 C 54.883 100.667,55.000 100.592,55.000 100.500 C 55.000 100.408,54.850 100.333,54.667 100.333 C 54.483 100.333,54.333 100.441,54.333 100.573 M47.684 100.819 C 47.298 101.063,47.605 101.500,48.161 101.500 C 48.546 101.500,48.667 101.425,48.667 101.184 C 48.667 100.739,48.128 100.538,47.684 100.819 M53.000 101.155 C 53.000 101.415,53.106 101.500,53.429 101.500 C 53.976 101.500,53.927 100.942,53.373 100.863 C 53.090 100.823,53.000 100.893,53.000 101.155 M51.702 101.353 C 51.281 101.508,51.210 101.963,51.584 102.107 C 52.016 102.273,52.667 102.018,52.667 101.683 C 52.667 101.315,52.219 101.162,51.702 101.353 M49.251 101.498 C 49.081 101.774,49.506 102.190,49.902 102.133 C 50.440 102.056,50.363 101.430,49.807 101.365 C 49.564 101.337,49.314 101.397,49.251 101.498 " stroke="none" fill="#afd9dc" fill-rule="evenodd"></path><path id="path3" d="" stroke="none" fill="#e4100ec" fill-rule="evenodd"></path><path id="path4" d="" stroke="none" fill="#e4100ec" fill-rule="evenodd"></path></g></svg>