<?xml version="1.0" encoding="UTF-8"?>
<svg xmlns="http://www.w3.org/2000/svg" xmlns:xlink="http://www.w3.org/1999/xlink" width="400pt" height="125pt" viewBox="0 0 400 125" version="1.1">
<g id="surface1">
<path style=" stroke:none;fill-rule:nonzero;fill:rgb(100%,100%,100%);fill-opacity:1;" d="M 378.398438 46.097656 C 369.320312 44.804688 361.679688 47.761719 356.199219 55.722656 C 352.398438 61.261719 351.28125 67.597656 351.960938 74.222656 C 352.761719 82.179688 356.441406 88.472656 363.121094 92.554688 C 368.441406 95.804688 374.28125 96.554688 380.320312 95.636719 C 385.519531 94.804688 390.039062 92.472656 393.679688 88.429688 C 394.679688 87.347656 394.878906 86.511719 393.601562 85.429688 C 391.761719 83.886719 390 82.304688 388.320312 80.597656 C 387.441406 79.722656 386.839844 79.679688 386 80.554688 C 383.878906 82.636719 381.359375 83.847656 378.519531 84.386719 C 373 85.511719 367.761719 82.761719 365.921875 77.804688 C 365.398438 76.304688 365.71875 75.847656 367.199219 75.847656 C 371.839844 75.886719 376.480469 75.886719 381.121094 75.886719 C 385.679688 75.886719 390.28125 75.804688 394.878906 75.886719 C 396.558594 75.929688 397.199219 75.222656 397.199219 73.511719 C 397.238281 69.636719 396.921875 65.804688 395.800781 62.097656 C 393.121094 53.097656 387.480469 47.386719 378.398438 46.097656 Z M 382.640625 66.847656 C 379.878906 66.847656 377.121094 66.847656 374.359375 66.847656 C 371.71875 66.847656 369.078125 66.847656 366.441406 66.847656 C 365.800781 66.847656 365.078125 66.886719 365.320312 65.804688 C 366.679688 59.261719 371.839844 56.304688 376.761719 57.511719 C 380.921875 58.511719 383 62.222656 383.761719 65.847656 C 384 66.886719 383.28125 66.847656 382.640625 66.847656 Z M 131.960938 34.386719 C 131.839844 37.472656 131.878906 40.511719 131.960938 43.554688 C 132 44.929688 131.601562 45.386719 130.238281 45.347656 C 125.558594 45.304688 120.839844 45.386719 116.121094 45.261719 C 114.28125 45.222656 113.878906 45.886719 113.878906 47.679688 C 113.921875 62.554688 113.921875 77.429688 113.921875 92.304688 C 113.921875 94.886719 113.921875 94.886719 111.519531 94.886719 C 108.519531 94.886719 105.519531 94.804688 102.519531 94.929688 C 100.679688 95.011719 100.238281 94.261719 100.238281 92.472656 C 100.28125 77.597656 100.28125 62.722656 100.28125 47.847656 C 100.28125 45.304688 100.28125 45.304688 97.878906 45.304688 C 93.28125 45.304688 88.679688 45.261719 84.121094 45.304688 C 82.519531 45.347656 81.921875 44.804688 81.960938 43.097656 C 82.039062 40.097656 82.078125 37.097656 81.960938 34.097656 C 81.921875 32.347656 82.601562 31.886719 84.121094 31.886719 C 91.761719 31.929688 99.398438 31.929688 107.039062 31.929688 C 114.558594 31.929688 122.078125 31.972656 129.601562 31.886719 C 131.441406 31.929688 132.039062 32.511719 131.960938 34.386719 Z M 69.359375 27.761719 L 9.960938 27.761719 C 7.320312 27.761719 5.199219 29.972656 5.199219 32.722656 L 5.199219 94.597656 C 5.199219 97.347656 7.320312 99.554688 9.960938 99.554688 L 69.359375 99.554688 C 72 99.554688 74.121094 97.347656 74.121094 94.597656 L 74.121094 32.722656 C 74.121094 30.011719 72 27.761719 69.359375 27.761719 Z M 52.199219 62.472656 C 52.039062 60.347656 51.359375 58.386719 50.238281 56.597656 C 47.519531 52.179688 42.519531 49.929688 37.558594 50.847656 C 35.480469 51.222656 33.558594 52.054688 32 53.429688 C 29.28125 55.761719 27.640625 58.761719 27.359375 62.511719 C 27.039062 66.679688 28.320312 70.179688 31.160156 73.097656 C 34.601562 76.679688 40.199219 77.679688 44.679688 75.679688 C 45.960938 75.097656 47.121094 74.386719 48.121094 73.386719 C 48.480469 73.011719 48.761719 72.972656 49.160156 73.386719 C 49.921875 74.304688 50.761719 75.136719 51.640625 75.929688 C 52.078125 76.304688 52.039062 76.804688 51.601562 77.136719 C 46.238281 81.847656 40.199219 83.222656 33.640625 80.636719 C 27.320312 78.222656 23.601562 73.261719 22.519531 66.386719 C 21.800781 62.011719 22.679688 57.847656 25 54.054688 C 28 49.179688 32.320312 46.304688 37.839844 45.597656 C 40.800781 45.222656 43.640625 45.636719 46.441406 46.847656 C 50.320312 48.554688 53.238281 51.304688 55.238281 55.097656 C 56.398438 57.222656 57.039062 59.554688 57.199219 61.972656 C 57.199219 62.179688 57.238281 62.347656 57.238281 62.472656 Z M 47.121094 62.472656 L 32.519531 62.472656 C 33.078125 58.847656 35.921875 56.179688 39.480469 55.929688 C 43.039062 55.722656 46.640625 58.804688 47.121094 62.472656 Z M 62.601562 63.679688 C 62.519531 61.761719 62.199219 59.847656 61.640625 58.011719 C 60.558594 54.222656 58.601562 50.847656 55.839844 47.972656 C 52.761719 44.761719 49.078125 42.636719 44.878906 41.636719 C 43.078125 41.222656 41.28125 40.972656 39.519531 40.972656 C 35.878906 40.972656 32.359375 41.929688 29.078125 43.761719 C 22.359375 47.554688 18.320312 53.511719 17.078125 61.554688 C 16.960938 62.261719 16.921875 62.972656 16.921875 63.636719 L 12.640625 63.636719 C 12.761719 59.597656 13.679688 55.804688 15.441406 52.261719 C 19.078125 44.847656 24.800781 39.886719 32.398438 37.554688 C 35.28125 36.679688 38.199219 36.304688 41 36.511719 C 47.679688 36.929688 53.441406 39.472656 58.160156 44.011719 C 62.71875 48.429688 65.519531 53.886719 66.558594 60.304688 C 66.71875 61.179688 66.761719 62.097656 66.800781 62.972656 C 66.800781 63.222656 66.839844 63.429688 66.839844 63.636719 Z M 249.761719 33.929688 C 249.679688 46.097656 249.921875 58.304688 249.601562 70.472656 C 249.398438 78.304688 246.960938 85.429688 240.761719 90.472656 C 237.078125 93.429688 232.839844 95.011719 228.28125 95.511719 C 222.558594 96.136719 216.878906 95.972656 211.441406 93.722656 C 203.28125 90.347656 199.199219 83.636719 197.71875 74.929688 C 197.398438 73.011719 197.28125 71.054688 197.28125 69.097656 C 197.320312 63.722656 197.28125 58.347656 197.28125 52.929688 C 197.28125 46.679688 197.320312 40.429688 197.238281 34.179688 C 197.199219 32.511719 197.71875 31.886719 199.359375 31.929688 C 202.480469 32.011719 205.601562 32.011719 208.679688 31.929688 C 210.441406 31.847656 210.878906 32.597656 210.878906 34.304688 C 210.839844 45.554688 210.800781 56.847656 210.878906 68.097656 C 210.878906 72.097656 211.558594 75.929688 214.398438 78.929688 C 218.398438 83.097656 223.238281 83.429688 228.28125 81.761719 C 232.878906 80.261719 234.960938 76.429688 235.71875 71.722656 C 236 69.886719 236.078125 68.097656 236.078125 66.222656 C 236.039062 55.636719 236.078125 45.054688 236.078125 34.472656 C 236.078125 31.972656 236.078125 31.929688 238.558594 31.929688 C 241.601562 31.929688 244.679688 31.972656 247.71875 31.929688 C 249.160156 31.972656 249.800781 32.347656 249.761719 33.929688 Z M 176.878906 74.097656 C 176.039062 72.804688 176.238281 72.347656 177.558594 71.761719 C 180.921875 70.222656 183.558594 67.804688 185.601562 64.554688 C 188.238281 60.347656 188.601562 55.636719 188.359375 50.804688 C 188.039062 44.386719 185.320312 39.304688 180.078125 35.847656 C 175.320312 32.679688 169.921875 32.179688 164.480469 32.097656 C 156.558594 31.972656 148.601562 32.054688 140.679688 32.054688 C 138.078125 32.054688 138.078125 32.054688 138.078125 34.679688 C 138.078125 44.304688 138.078125 53.886719 138.078125 63.511719 C 138.078125 73.136719 138.078125 82.722656 138.078125 92.347656 C 138.078125 94.972656 138.078125 94.972656 140.679688 94.972656 C 143.761719 94.972656 146.800781 94.886719 149.839844 95.011719 C 151.441406 95.054688 152 94.472656 152 92.761719 C 151.921875 87.554688 152 82.347656 151.960938 77.136719 C 151.921875 75.636719 152.359375 75.011719 153.878906 75.097656 C 155.921875 75.222656 158 75.179688 160.039062 75.097656 C 161.320312 75.054688 162.078125 75.554688 162.800781 76.636719 C 166.359375 82.261719 170.039062 87.804688 173.601562 93.429688 C 174.28125 94.511719 175.039062 95.011719 176.320312 94.972656 C 180.320312 94.886719 184.320312 94.972656 188.320312 94.929688 C 188.878906 94.929688 189.640625 95.222656 189.960938 94.597656 C 190.359375 93.886719 189.640625 93.386719 189.28125 92.847656 C 185.160156 86.597656 181.078125 80.304688 176.878906 74.097656 Z M 167.121094 62.136719 C 162.558594 62.761719 157.960938 62.304688 153.398438 62.472656 C 152.320312 62.472656 151.960938 61.972656 151.960938 60.929688 C 152 58.472656 151.960938 56.054688 151.960938 53.597656 C 151.960938 51.261719 151.960938 48.929688 151.960938 46.636719 C 151.960938 45.847656 152.039062 45.097656 153.039062 45.136719 C 157.921875 45.261719 162.800781 44.636719 167.640625 45.472656 C 172.238281 46.261719 174.839844 49.511719 174.71875 54.054688 C 174.601562 58.304688 171.601562 61.511719 167.121094 62.136719 Z M 304.519531 76.097656 C 304.480469 83.679688 301.519531 89.304688 295.160156 92.886719 C 291.960938 94.722656 288.441406 95.429688 284.839844 95.679688 C 283.960938 95.761719 283.078125 95.679688 282.199219 95.679688 C 273.28125 95.554688 265.238281 92.804688 258.199219 86.972656 C 257.039062 85.972656 256.800781 85.222656 257.839844 84.011719 C 259.800781 81.679688 261.71875 79.261719 263.640625 76.847656 C 264.480469 75.761719 265.160156 75.636719 266.238281 76.554688 C 270.078125 79.847656 274.398438 82.097656 279.320312 82.886719 C 281.960938 83.304688 284.601562 83.347656 287.121094 82.386719 C 289.160156 81.636719 290.640625 80.386719 290.800781 77.972656 C 291 75.386719 290.238281 74.054688 287.761719 72.761719 C 284.039062 70.847656 279.960938 70.136719 276 68.886719 C 272.238281 67.679688 268.480469 66.511719 265.199219 64.097656 C 259.960938 60.222656 258.679688 54.636719 259.199219 48.386719 C 260.078125 37.929688 268.238281 32.554688 276.28125 31.597656 C 285.359375 30.472656 293.640625 32.597656 301.160156 38.011719 C 302.480469 38.972656 302.839844 39.679688 301.71875 41.136719 C 299.878906 43.597656 298.238281 46.222656 296.601562 48.804688 C 295.921875 49.847656 295.359375 49.972656 294.359375 49.261719 C 290.878906 46.722656 287 44.886719 282.800781 44.097656 C 280.601562 43.679688 278.359375 43.722656 276.199219 44.554688 C 274.160156 45.347656 272.800781 46.761719 272.71875 49.136719 C 272.640625 51.347656 273.839844 52.804688 275.640625 53.761719 C 278.601562 55.347656 281.800781 56.054688 285 56.972656 C 288.761719 58.011719 292.441406 59.136719 295.921875 61.097656 C 301.71875 64.304688 304.519531 69.136719 304.519531 76.097656 Z M 354.121094 45.347656 C 349.480469 45.304688 344.839844 45.386719 340.199219 45.304688 C 338.441406 45.261719 337.878906 45.804688 337.878906 47.679688 C 337.960938 62.511719 337.921875 77.304688 337.921875 92.136719 C 337.921875 94.972656 337.921875 94.972656 335.160156 94.972656 C 332.28125 94.972656 329.398438 94.886719 326.519531 95.011719 C 324.839844 95.054688 324.28125 94.511719 324.28125 92.722656 C 324.320312 77.761719 324.320312 62.847656 324.320312 47.886719 C 324.320312 45.386719 324.320312 45.386719 321.878906 45.386719 C 317.359375 45.386719 312.800781 45.386719 308.28125 45.386719 C 306.121094 45.386719 306.039062 45.261719 306 42.972656 C 306 40.054688 306.078125 37.097656 306 34.179688 C 305.960938 32.597656 306.480469 32.011719 308.039062 32.054688 C 315.679688 32.097656 323.320312 32.054688 330.960938 32.054688 C 338.558594 32.054688 346.121094 32.097656 353.71875 32.011719 C 355.359375 32.011719 356.039062 32.472656 356 34.304688 C 355.839844 37.347656 355.878906 40.429688 356 43.472656 C 356 44.886719 355.480469 45.386719 354.121094 45.347656 Z M 354.121094 45.347656 "/>
</g>
</svg>
